<svg id="Layer_1" enable-background="new 0 0 468 468" height="512" viewBox="0 0 468 468" width="512" xmlns="http://www.w3.org/2000/svg"><g><g><path d="m347.293 130h-88.572c-8.291 0-14.721-6.433-14.721-14.717v-100.283c0-13.52 17.171-20.062 26.124-9.925l88.499 100.142c8.379 9.489 1.336 24.783-11.33 24.783zm-73.293-30h40.022l-40.022-45.332z"/><g><path d="m74 233h130v30h-130z"/><path d="m74 303h128v30h-128z"/><path d="m74 373h130v30h-130z"/><path d="m196.165 193h-110.094c-8.291 0-15.071-6.716-15.071-15v-98c0-8.284 6.78-15 15.071-15h110.093c8.292 0 14.836 6.716 14.836 15v98c0 8.284-6.544 15-14.835 15zm-95.165-30h80v-68h-80z"/></g></g><g><g><path d="m466 442.394-58.594-58.544c13.155-17.535 20.955-39.299 20.955-62.85 0-57.897-47.143-105-105.089-105s-105.089 47.103-105.089 105 47.143 105 105.089 105c23.571 0 45.353-7.794 62.903-20.938l58.594 58.544zm-142.728-46.394c-41.39 0-75.064-33.645-75.064-75s33.674-75 75.064-75 75.064 33.645 75.064 75-33.673 75-75.064 75z"/><path d="m332 158h30v33h-30z"/><path d="m333 468h-301.975c-16.005 0-29.025-13.01-29.025-29v-410c0-15.99 13.02-29 29.025-29h191.975v30h-191v408h301z"/></g></g></g></svg>