<svg xmlns="http://www.w3.org/2000/svg" width="44.981" height="30" viewBox="0 0 44.981 30">
  <path id="Icon_ionic-ios-arrow-round-forward" data-name="Icon ionic-ios-arrow-round-forward" d="M36.561,11.826a2.042,2.042,0,0,0-.016,2.875l9.5,9.515H9.89a2.031,2.031,0,0,0,0,4.062H46.029l-9.5,9.515a2.056,2.056,0,0,0,.016,2.875,2.023,2.023,0,0,0,2.859-.016L52.278,27.684h0a2.281,2.281,0,0,0,.422-.641,1.938,1.938,0,0,0,.156-.781,2.036,2.036,0,0,0-.578-1.422L39.4,11.873A1.99,1.99,0,0,0,36.561,11.826Z" transform="translate(-7.875 -11.252)" fill="#42f4f4"/>
</svg>
