<svg xmlns="http://www.w3.org/2000/svg" width="241.164" height="86.378" viewBox="0 0 241.164 86.378">
  <g id="Group_7199" data-name="Group 7199" transform="translate(-53.746)">
    <path id="Path_5204" data-name="Path 5204" d="M75.556,49.055c-.907,0-1.815,0-2.724-.009A323.8,323.8,0,0,1,31.851,46c-7.042-1.009-13.357-2.122-19.318-3.409C6.188,41.244.117,39.693-5.5,37.978c-12.439-3.77-22.465-8.2-29.789-13.169l-.311-.222c-.846-.6-1.695-1.21-2.5-1.828l-1.552-1.287a13.486,13.486,0,0,1-1.055-.94l-.652-.618a17.051,17.051,0,0,1-1.58-1.608l-.935-1.037a10.226,10.226,0,0,1-.652-.838l-.263-.361a18.872,18.872,0,0,1-3.978-9.894C-49.188-.47-45.073-7.311-37.17-13.087c7.177-5.27,17.3-9.91,30.082-13.786A237.2,237.2,0,0,1,31.275-34.8a332.327,332.327,0,0,1,83.073.157c1.119.15,2.227.312,3.336.474l1.659.243c1.114.164,2.2.347,3.293.53l1.659.275c3.683.655,6.843,1.275,9.7,1.9a187.268,187.268,0,0,1,18.125,4.851,130.6,130.6,0,0,1,15.887,6.279c2.312,1.1,4.552,2.3,6.838,3.657.693.389,1.369.824,2.039,1.259l1.017.65c.706.467,1.328.916,1.95,1.368l.91.657a35.736,35.736,0,0,1,8.553,8.908,17.9,17.9,0,0,1,3.053,9.695,18.112,18.112,0,0,1-3.1,9.685,35.994,35.994,0,0,1-8.507,8.85l-.979.706c-.619.449-1.239.9-1.9,1.333l-1.055.673c-.67.435-1.346.87-2.082,1.284-2.245,1.335-4.485,2.53-6.807,3.629a129.292,129.292,0,0,1-15.885,6.256,211.549,211.549,0,0,1-37.817,8.163,306.241,306.241,0,0,1-38.681,2.363M47,44.863c8.433.773,17.1,1.217,25.888,1.326a298.5,298.5,0,0,0,40.615-2.305,206.017,206.017,0,0,0,36.849-7.947q1.1-.358,2.179-.724-1.9.552-3.871,1.081a266.414,266.414,0,0,1-36.63,6.753,376.45,376.45,0,0,1-39.145,2.444c-6.731.065-13.415-.042-19.863-.322Q49.981,45.04,47,44.863M73.27-29.915h-.413a342.629,342.629,0,0,0-38.3,2.226A227.335,227.335,0,0,0-.673-20.866c-11.292,3.233-20.48,7.158-27.3,11.664l-.41.287c-.7.493-1.412.988-2.082,1.49l-1.348,1.09a9.3,9.3,0,0,0-.77.662l-.739.685a12.563,12.563,0,0,0-1.218,1.2l-.979,1.062a5.992,5.992,0,0,0-.428.537l-.308.407a15.133,15.133,0,0,0-3.3,7.971c-.377,5.385,3.109,11,9.812,15.809,6.534,4.7,16.035,8.917,27.48,12.2C3.109,35.731,8.986,37.092,15.2,38.244c6.175,1.12,12.475,2.02,18.714,2.673,6.1.648,12.61,1.118,19.361,1.4,6.348.271,12.926.377,19.552.312a370.411,370.411,0,0,0,38.528-2.4,261.382,261.382,0,0,0,35.865-6.61,140.862,140.862,0,0,0,15.722-5.117c2.314-.912,4.575-1.912,6.919-3.066.548-.252.986-.5,1.432-.741l1.7-.933c.632-.354,1.241-.729,1.85-1.106l1.073-.655a31.262,31.262,0,0,0,8.471-7.616l.275-.377c.158-.208.313-.419.449-.629l.571-1.039A8.977,8.977,0,0,0,186.4,10.8l.227-.565a3.86,3.86,0,0,0,.278-.93l.268-1.153c.069-.4.1-.856.13-1.315l.064-.826-.071-.632a12.823,12.823,0,0,0-.148-1.356l-.257-1.078a3.987,3.987,0,0,0-.273-.91l-.242-.6a8.491,8.491,0,0,0-.7-1.5l-.647-1.155c-.1-.153-.252-.359-.405-.565l-.293-.4A31.655,31.655,0,0,0,175.8-9.8l-1.042-.636c-.607-.373-1.208-.743-1.848-1.1l-1.562-.852c-.566-.31-1.009-.555-1.5-.78-2.429-1.192-4.689-2.192-6.957-3.083a139.989,139.989,0,0,0-15.742-5.1c-5.107-1.365-10.811-2.618-17.442-3.826-2.694-.491-5.591-.954-9.121-1.46l-1.685-.236c-.976-.139-1.95-.278-2.936-.4l-4.725-.574a338.55,338.55,0,0,0-37.97-2.067m-.428-4.555a322.31,322.31,0,0,0-40.832,2.481A232.032,232.032,0,0,0-5.474-24.256C-17.755-20.53-27.432-16.11-34.231-11.113-41.359-5.9-45.078.19-44.7,6.045a15.552,15.552,0,0,0,2.444,7.117A14.782,14.782,0,0,1-43.62,6.041a17.414,17.414,0,0,1,3.795-9.193l.268-.349a8.723,8.723,0,0,1,.624-.78L-38-5.288A15.673,15.673,0,0,1-36.54-6.732l.645-.595a12.4,12.4,0,0,1,1.009-.879l1.4-1.132c.754-.565,1.491-1.081,2.227-1.6l.451-.315c7.235-4.779,16.84-8.892,28.6-12.259A233.173,233.173,0,0,1,33.877-30.5a348.916,348.916,0,0,1,78.033-.16l4.745.576c1.03.125,2.041.268,3.056.412l1.667.234c3.621.521,6.585,1,9.35,1.5,6.776,1.236,12.62,2.518,17.862,3.92q3.33.882,6.427,1.833-2.248-.816-4.6-1.581a181.677,181.677,0,0,0-17.62-4.717c-2.8-.616-5.892-1.224-9.457-1.856l-1.651-.275c-1.053-.176-2.105-.352-3.17-.509l-1.669-.245c-1.081-.16-2.164-.317-3.254-.463a324.742,324.742,0,0,0-40.753-2.636" transform="translate(102.539 37.323)" fill="#a6fe53"/>
  </g>
</svg>
