<svg xmlns="http://www.w3.org/2000/svg" width="246.072" height="140.724" viewBox="0 0 246.072 140.724">
  <path id="Path_7573" data-name="Path 7573" d="M109.333,66.8c.214-.232.332-.363.447-.487-1.986-.394-1.983-.389-3.407.748-.137.11-.428.226-.546.168a5.413,5.413,0,0,0-4.17-.015,6.689,6.689,0,0,1-1.916.029c-.7.612-1.274,1.421-2.474,1.157-.872,1.03-2.216.508-3.266.829-1.284.394-2.583.612-3.882.879-.192.038-.358.191-.546.206-1.868.142-3.745.244-5.613.4-.875.073-1.743.238-2.612.377s-1.833-.357-2.637.348c-.15.131-.552,0-.83.041-.948.133-1.775-.812-2.762-.247-.92.528-1.928.026-2.874.325-.131-.325-.22-.548-.326-.812H69.455c.14.191.22.3.316.429-.862.911-.865.911-1.574.206-.089-.087-.134-.258-.233-.281-.661-.162-1.331.513-2-.012-.338.351-.674.7-1.028,1.061-.939.154-1.935.368-2.944.464s-2.088-.168-3.324.716c.2-.673.291-.977.405-1.363H56.566c.131.307.255.606.4.94-.38.525-.92-.548-1.51.061-.275.284-1.207-.078-1.7.421-.064.064-.281-.012-.418.014-.54.093-.9-.751-1.657-.113-.386.325-1.357.1-2.066.107a10.649,10.649,0,0,0-1.925.017c-3.783.771-7.644-.029-11.4.421-4.955.595-9.9.218-14.847.31-5.006.1-10.013.006-15.019.032-1.536.009-2.979-.548-4.547-.421a43.346,43.346,0,0,1-4.716.009A7.339,7.339,0,0,1-4.174,73.4a16.34,16.34,0,0,0-1.97-.377c-.635-.064-1.29.038-1.925-.026-.664-.067-1.312-.252-1.97-.368-.594-.1-1.181.1-1.81-.3-.434-.273-1.236-.084-1.874-.087-1.421-.009-1.389-.084-3.3-.745-1.485-.513-3.062-.809-4.607-1.177-.971-.229-1.951-.426-2.931-.618a19.018,19.018,0,0,1-2.957-.568c-2.075-.774-4.093-1.67-6.1-2.575a30.9,30.9,0,0,1-3.1-1.641A4.8,4.8,0,0,1-38.7,63.238a2.126,2.126,0,0,0-.875-.821,16.828,16.828,0,0,1-5.37-4.922,20.993,20.993,0,0,1-2.711-4.939c-.568-1.325-1.4-2.6-1.456-4.083-.006-.157-.259-.3-.287-.461a24.078,24.078,0,0,1-.425-2.726c-.07-1.085.026-2.181-.026-3.268-.112-2.425.8-4.681,1.4-6.986.026-.107.291-.2.278-.273-.23-1.357.693-2.442,1.1-3.64a32.675,32.675,0,0,1,1.52-3.28,41.381,41.381,0,0,1,4.974-7.961c.192-1.563,1.67-2.451,2.471-3.692.814-1.264,2.107-2.28,2.96-3.529,1.408-2.062,3.445-3.6,5.15-5.406a28,28,0,0,1,4.183-3.973c.8-.56,1.143-1.421,2.072-1.873A17.09,17.09,0,0,0-21.5-.281c.67-.479.951-1.241,1.762-1.653.757-.386,1.293-1.076,2.1-1.494a13.439,13.439,0,0,0,2.072-1.508,45.5,45.5,0,0,1,4.54-3.225C-9.794-8.912-8.542-9.652-7.4-10.5a36.594,36.594,0,0,1,3.866-2.355c2.321-1.32,4.448-2.9,6.919-4.025,1.9-.864,3.659-1.987,5.5-2.958.971-.51,1.98-.974,2.992-1.412,1.2-.522,2.331-1.154,3.506-1.705,1.4-.655,2.886-1.183,4.333-1.766,1,.522.568-.835,1.325-.8a5.841,5.841,0,0,0,1.96-.368,14.672,14.672,0,0,0,1.584-.751c.587-.276,1.172-.554,1.782-.789.667-.255,1.357-.467,2.043-.684.629-.2,1.3-.157,1.967-.377.8-.261,1.638-.563,2.43-.748a21.061,21.061,0,0,0,2.532-.586c.626-.241,1.325-.029,1.753-.36.485-.371.99.171,1.491-.27.37-.325,1.127-.3,1.711-.421.067-.015.156.023.211-.006a10.763,10.763,0,0,1,5.01-.792c1.344-.017,1.9.07,2.018,1.082a8.3,8.3,0,0,0,.485,1.757c.361,1.041,1.223,1.436,2.11.815.546-.38,1.22-.348,1.647-.606a14.8,14.8,0,0,1,2.778-.983,24.839,24.839,0,0,1,2.819-.856c.246-.058.591.223,1.031.409.457-.374.961-.792,1.137-.937a46.373,46.373,0,0,0,4.636-1.172,3.438,3.438,0,0,1,1.382-.241,12.63,12.63,0,0,0,4-.65c1.038-.276,2.139-.278,3.206-.458a50.188,50.188,0,0,1,6.031-.429,2.039,2.039,0,0,0,1.309-.458c.268-.215.9-.423,1.1-.3,1.456.948,2.749-.116,4.106-.188.112-.006.284-.232.313-.215a2.865,2.865,0,0,0,2.385.322c.824-.255,1.485-.568,2.273,0,.109.078.463-.148.715-.186.473-.067,1.149-.3,1.4-.113,1.2.914,2.806-.241,3.949.7.977-1,1.912.481,2.88.038a4.665,4.665,0,0,0,3.368.183,11.7,11.7,0,0,1,2.107.188,17.63,17.63,0,0,1,6.3.771,3.607,3.607,0,0,0,.852.014c1.443.122,2.886.249,4.326.392a1.486,1.486,0,0,1,.543.215,13.016,13.016,0,0,0,4.08.9,5.462,5.462,0,0,1,2.522.653,10.17,10.17,0,0,0,3.413.908c1.5.319,3.126.3,4.256,1.473.437.455.655-.487,1.2-.107a11.92,11.92,0,0,0,4.789,1.647c.6.1-.118,1.215.769.6.517-.357.725.165,1.047.2.6.061.789.661,1.185.69,2.506.183,4.294,1.879,6.609,2.442.367.09.856.328.961.6a1.448,1.448,0,0,0,1.51.885c1.076-.081,1.689.76,2.637.841,1.1,1.241,2.921,1.491,4.221,2.532,1.236.992,2.851,1.6,4.138,2.616a16.2,16.2,0,0,0,2.842,1.728,17.011,17.011,0,0,1,2.238,1.615c1.367.954,2.4,2.19,3.758,3.155a22.653,22.653,0,0,1,3.154,3.222c.3.325.5.734.837,1.03a24.755,24.755,0,0,1,4.76,5.931,27.083,27.083,0,0,1,3.126,6.534c.348,1.276.83,2.523,1.14,3.8a16.346,16.346,0,0,1,.872,5.446c.785,1.172.322,2.456.421,3.689a3.842,3.842,0,0,1-.405,2.349c-.211.363.5.711.035,1.247-.275.319-.083.992-.042,1.5a17.757,17.757,0,0,1-1.753,6.467,39.571,39.571,0,0,1-4.24,6.705,4.1,4.1,0,0,1-1.424,1.235c-.54.261-.747,1.108-1.29,1.331-.667.276-.936.858-1.564,1.157a10.007,10.007,0,0,0-1.7,1.447c-.552.441-.9,1.189-1.887,1.041-.134-.02-.348.189-.476.328a9.838,9.838,0,0,1-3.554,2.059,20.056,20.056,0,0,0-2.688,1.615c-1.271.824-2.513,1.685-3.774,2.52-.92.609-1.826,1.235-2.739,1.847-.773.516-1.868.461-2.43,1.305-.476.713-1.437.867-2.2,1.238-1.523.734-3.285.908-4.8,1.717-.364.2-.821.351-1.232.571a8.078,8.078,0,0,1-3.384,1.032,10.055,10.055,0,0,0-5.077,1.554,8.765,8.765,0,0,1-1.8.737c-2.213.815-4.5,1.418-6.785,2.05a7.838,7.838,0,0,1-1.373.261c-.415.038-.964-.078-1.223.119-1.082.824-2.34.641-3.573.647a7.487,7.487,0,0,0-2.193.345,5.936,5.936,0,0,1-2.385.467,5.4,5.4,0,0,0-1.718.418c-1.986.528-3.93,1.279-6.213,1.024M33.494-19.712a4.835,4.835,0,0,0-1.568.023c-3.052,1.285-6.267,2.245-9.256,3.651a5.722,5.722,0,0,0-2.225,1.221c-2.047.087-3.244,1.937-5.281,2.039-1.7,1.424-3.962,2.021-5.795,3.257a34.208,34.208,0,0,1-3.78,2.048C3.23-6.288,1.142-4.771-1.138-3.5c-2.369,1.32-4.553,2.9-6.8,4.391-2.628,1.737-4.952,3.75-7.42,5.626C-16.9,7.691-18.283,9.043-19.912,10.1c-.524.339-.686.818-1.14,1.122a5.859,5.859,0,0,0-1.408,1.006c-.421.551-1.252.728-1.51,1.273-.351.751-1.271.818-1.7,1.45a28.357,28.357,0,0,1-4.984,5.272,10.616,10.616,0,0,0-1.162,1.3c-1.185,1.462-2.146,3.068-3.3,4.53-1.635,2.074-2.982,4.286-4.412,6.459-.4.6-.476,1.383-.9,1.966a20,20,0,0,0-1.683,3.8c-.779,1.7-.878,3.619-2.043,5.206-.1.128-.131.447-.051.5.744.467.169.853-.064,1.256a3.058,3.058,0,0,0-.447,1.766,14.7,14.7,0,0,1-.022,3.454c-.23,1.282.658,2.222.948,3.332.128.484.738.9,1.2,1.273.766.621,1.584,1.195,2.395,1.775.587.421,1.213.795,1.785,1.233.626.476,1.44.58,2.133,1.012a13.425,13.425,0,0,0,4.183,1.554c.744.162,1.37.461,2.059.679a12.87,12.87,0,0,1,2.321.551,2.057,2.057,0,0,0,.9.348c1.663-.017,3.129.719,4.738.96,1.769.264,3.531.7,5.316.992.45.073.875.307,1.328.36.562.067,1.255-.162,1.689.058a5.662,5.662,0,0,0,2.206.357c.734.07,1.45.307,2.184.36,2.225.154,4.5-.307,6.686.4,3.608-.278,7.168.421,10.766.4,6.721-.043,13.445.006,20.169-.029a10.713,10.713,0,0,0,3.927-.307,3.042,3.042,0,0,1,2.232.165c.517.241,1.389-.177,2.1-.2.294-.012.722.412.872.328.431-.247,1.092-.2,1.3-.394.581-.539,1.063.307,1.376,0,.549-.537,1.191-.325,1.788-.331,2.577-.026,5.15,0,7.727-.017a10.12,10.12,0,0,0,2.2-.3,11.921,11.921,0,0,1,3.879-.49c1.344.131,2.739-.113,4.068.07,1.271.174,2.484-.725,3.736-.052.067.038.233-.093.358-.122.552-.125.99-.853,1.676-.252a4.707,4.707,0,0,1,2.184-.4,17.836,17.836,0,0,0,3-.02c.552-.07,1.031-.632,1.587-.7s1.274.461,1.724.3c1.443-.522,2.9-.264,4.349-.336,1.43-.073,2.947.293,4.179-.722.08-.07.265-.046.4-.049a6.885,6.885,0,0,0,2.771-.27c.932.551,1.74-.3,2.711-.177a8.181,8.181,0,0,0,3.209-.412,10.831,10.831,0,0,1,2.471-.673,20.674,20.674,0,0,0,2.624-.336,44.249,44.249,0,0,1,5.172-.441c.284-.02.651.1.843-.023a7.027,7.027,0,0,1,2.886-.7c1.025-.142,2.085.035,2.877-.8.121-.128.549-.02.837-.017a19.147,19.147,0,0,0,6.472-1.317,5.707,5.707,0,0,1,.971-.22,10.629,10.629,0,0,0,2.583-.438,5.4,5.4,0,0,1,1.782-.342,25.389,25.389,0,0,0,2.819-.4,8.162,8.162,0,0,0,1.418-.641c.415-.183.872-.5,1.271-.461a7.431,7.431,0,0,0,3.515-.789c.856-.319,1.756-.537,2.644-.78a12.539,12.539,0,0,0,2.334-.7,6.063,6.063,0,0,0,1.376-.719c.632-.537.9.586,1.481.264.683-.377,1.638-.22,2.174-.858a1.845,1.845,0,0,1,1.836-.682c.437-.89,2.069.258,2.261-1.059.987.238,1.389-.934,2.168-.812.635.1,1.012-.464,1.67-.247.255.084.8-.441,1.162-.737,1.466-1.2,3.541-1.412,5.077-2.509.118-.084.552.183.843.287.37-.737.7-1.514,1.855-1.473a.585.585,0,0,0,.361-.136,4.122,4.122,0,0,1,2.063-1.148c.722-.125,1.3-.858,1.967-1.288a8.347,8.347,0,0,1,1.054-.5c.76-.342,1.52-.682,2.276-1.024.156-1.093,1.472-1.244,2.075-2.021.463-.595,1.628-.751,2.088-1.346a13.443,13.443,0,0,1,2.037-1.679c1.245-1.093,2.181-2.517,3.879-3.173.073-.029.14-.244.131-.249-.7-.36.038-.632.131-.864.153-.386.575-.679.852-1.03a5.724,5.724,0,0,0,1.2-1.662,9.513,9.513,0,0,1,.875-1.8,19.49,19.49,0,0,0,1.3-3.361,26.319,26.319,0,0,0,.852-3.718,4.831,4.831,0,0,0-.361-2.543c-.46-1.119-.568-2.352-.923-3.509-.169-.566-.731-1.056-.8-1.615a8.966,8.966,0,0,0-3.337-5.5,2.2,2.2,0,0,1-.549-.566c-.581-1.209-1.031-2.5-2.586-3.045-.406-1.082-1.491-1.653-2.324-2.4s-1.45-1.734-2.682-2.059c-.182-.821-1.175-.9-1.657-1.465a4.7,4.7,0,0,0-2.446-1.572,5.232,5.232,0,0,1-1.813-1.151,24.992,24.992,0,0,0-4.7-3.353c-.667-.435-1.36-.821-2.005-1.305a13.907,13.907,0,0,0-2.414-1.1c-.354-.165-.674-.4-1.015-.592-.951-.548-1.689-1.351-3.03-1.389-.693-.02-1.312-.853-2.056-1.059a22.779,22.779,0,0,1-4-1.566,7.828,7.828,0,0,0-1.108-.389c-.808-.261-1.679-.818-2.417-.7-1.188.183-1.759-.629-2.653-.867-1.459-.389-2.73-1.317-4.361-1.241-.048,0-.093-.11-.153-.128a4.491,4.491,0,0,1-1.8-.789c-.536-.452-1.475.157-2.165-.415-.428-.36-1.14-.154-1.75-.354-1.076-.354-2.063-1.111-3.071-1.2-1.983-.171-3.844-.928-5.856-.856a2.92,2.92,0,0,1-1.038-.075,9.5,9.5,0,0,0-4.186-.673,2.358,2.358,0,0,1-1.529-.415,2.751,2.751,0,0,0-1.762-.368c-2.755.273-5.444-.528-8.193-.409-.361.017-.738-.336-1.108-.336s-.728.284-1.111.342a1.5,1.5,0,0,1-1-.1c-.437-.406-.926-.258-1.392-.264-1.861-.017-3.72.032-5.578-.017-1.823-.049-3.563.684-5.4.4-.07-.012-.166-.029-.211,0-.865.6-1.874.368-2.829.368a21.271,21.271,0,0,0-2.813.481c-1.162.151-2.369.084-3.471.345a19.717,19.717,0,0,1-5.022.731,1.725,1.725,0,0,0-.8.119c-1.593.835-3.518.589-5.179,1.349-.757.345-1.823.133-2.708.644-.757.438-1.756.389-2.637.789a14.843,14.843,0,0,1-3.688,1.238,23.653,23.653,0,0,0-5.022,1.259,12.6,12.6,0,0,0-3.7,1.76,8.465,8.465,0,0,1-2.056,1.1c-.9.389-1.964.455-2.666,1.218a.884.884,0,0,1-.769.116c-.527-.258-.757-.313-1.031.313a1.947,1.947,0,0,1-1.3.806c-2,.342-3.557,1.612-5.524,1.989a1.742,1.742,0,0,0-.894.363c-.907.969-2.5,1.076-3.311,2.158a.447.447,0,0,1-.345.157c-1.188-.151-2,.638-3.008.937a15.139,15.139,0,0,1-2.079.589c-.667.1-.619-.307-.38-.708.2.1.386.206.645.345a5.994,5.994,0,0,1,.163-1.778,2.4,2.4,0,0,1,1.3-1.218.641.641,0,0,0,.3-.27c.172-.328-.348-.9.552-1.006.4-.049.4-.856,1.073-.824,0-.542.568-.644.9-.928-.677-.5.278-.783.188-1.2.7.061.655-.795,1.07-.815.849-.043.415-.9,1-1.044.527-.131.948-.374,1.028-.85.265.122.552.252,1.006.458-.182-1.409,1.137-1.844,1.852-2.825" transform="translate(59.699 41.75) rotate(8)" fill="#a6fe53"/>
</svg>
