<svg xmlns="http://www.w3.org/2000/svg" width="243.604" height="107.116" viewBox="0 0 243.604 107.116">
  <path id="Path_7570" data-name="Path 7570" d="M110.917,34.849l.451-.335c-2.006-.271-2-.267-3.441.514a.987.987,0,0,1-.551.116,7.874,7.874,0,0,0-4.211-.01,9.907,9.907,0,0,1-1.935.02,3.265,3.265,0,0,1-2.5.795c-.88.707-2.238.348-3.3.57-1.3.271-2.609.42-3.921.6-.193.026-.361.131-.551.141-1.886.1-3.782.167-5.669.277-.884.05-1.761.163-2.638.259s-1.851-.245-2.664.239c-.152.09-.558,0-.838.028-.958.092-1.793-.558-2.789-.169-.929.362-1.948.018-2.9.223-.132-.223-.222-.376-.329-.558H70.642c.142.131.222.207.319.295-.871.625-.874.625-1.59.141-.09-.06-.135-.177-.235-.193-.667-.112-1.345.352-2.022-.008-.342.241-.68.48-1.038.729-.948.106-1.954.253-2.973.319a7.673,7.673,0,0,0-3.357.492c.2-.462.293-.671.41-.936H57.625c.132.211.258.416.4.645-.384.36-.929-.376-1.525.042-.277.2-1.219-.054-1.722.289-.065.044-.284-.008-.422.01-.545.064-.906-.516-1.674-.078a6.376,6.376,0,0,1-2.086.074,15.8,15.8,0,0,0-1.944.012c-3.821.53-7.72-.02-11.518.289-5,.408-10,.149-14.994.213-5.056.066-10.112,0-15.168.022-1.551.006-3.009-.376-4.592-.289s-3.176.038-4.763.006a10.285,10.285,0,0,1-1.338-.249c-.658-.1-1.319-.213-1.99-.259-.642-.044-1.3.026-1.944-.018-.671-.046-1.325-.173-1.99-.253a5.851,5.851,0,0,1-1.828-.205,6.236,6.236,0,0,0-1.893-.06,10.232,10.232,0,0,1-3.334-.512c-1.5-.352-3.092-.556-4.653-.808-.98-.157-1.97-.293-2.96-.424a27.416,27.416,0,0,1-2.986-.39c-2.1-.532-4.134-1.147-6.165-1.768-1.08-.331-2.122-.719-3.131-1.127a4.827,4.827,0,0,1-2-1.155,2.028,2.028,0,0,0-.884-.564A16.3,16.3,0,0,1-44.9,28.463a14.027,14.027,0,0,1-2.738-3.391c-.574-.91-1.412-1.784-1.47-2.8-.006-.108-.261-.2-.29-.317a11.719,11.719,0,0,1-.429-1.872c-.071-.745.026-1.5-.026-2.244-.113-1.665.8-3.214,1.412-4.8.026-.074.293-.135.281-.187-.232-.932.7-1.677,1.116-2.5A20.2,20.2,0,0,1-45.507,8.1a29.52,29.52,0,0,1,5.024-5.466C-40.29,1.56-38.8.95-37.987.1-37.165-.77-35.859-1.467-35-2.325c1.422-1.416,3.479-2.471,5.2-3.712a26.719,26.719,0,0,1,4.224-2.728c.809-.384,1.154-.976,2.093-1.286a18.332,18.332,0,0,0,2.257-1.157c.677-.329.961-.852,1.78-1.135.764-.265,1.306-.739,2.122-1.026A14.641,14.641,0,0,0-15.228-14.4a50.132,50.132,0,0,1,4.585-2.214c1.248-.516,2.512-1.024,3.67-1.609,1.219-.619,2.593-1.109,3.9-1.617,2.344-.906,4.492-1.991,6.988-2.764,1.922-.593,3.7-1.364,5.559-2.031.98-.35,2-.669,3.021-.97,1.212-.358,2.354-.793,3.541-1.171,1.419-.45,2.915-.812,4.376-1.213,1.013.358.574-.574,1.338-.55a8.409,8.409,0,0,0,1.98-.253c.561-.123,1.061-.346,1.6-.516.593-.189,1.183-.38,1.8-.542.674-.175,1.37-.321,2.064-.47.635-.135,1.309-.108,1.986-.259.813-.179,1.654-.386,2.454-.514.822-.131,1.809-.207,2.557-.4.632-.165,1.338-.02,1.77-.247.49-.255,1,.117,1.506-.185A5.974,5.974,0,0,1,41.2-32.22a1.481,1.481,0,0,0,.213,0,15.556,15.556,0,0,1,5.059-.544c1.358-.012,1.919.048,2.038.743A4.374,4.374,0,0,0,49-30.818a1.534,1.534,0,0,0,2.131.56c.551-.261,1.232-.239,1.664-.416a20.025,20.025,0,0,1,2.805-.675c.929-.229,1.88-.434,2.847-.587a3.445,3.445,0,0,1,1.042.281c.461-.257.971-.544,1.148-.643,1.828-.3,3.308-.468,4.682-.8a4.962,4.962,0,0,1,1.4-.165,18.31,18.31,0,0,0,4.037-.446c1.048-.189,2.16-.191,3.237-.315,1.993-.229,4.057-.231,6.091-.295a2.722,2.722,0,0,0,1.322-.315,1.976,1.976,0,0,1,1.109-.2c1.47.651,2.776-.08,4.147-.129.113,0,.287-.159.316-.147a4.1,4.1,0,0,0,2.409.221,3.213,3.213,0,0,1,2.3,0c.11.054.468-.1.722-.127a4.037,4.037,0,0,1,1.416-.078c1.216.627,2.834-.165,3.989.478.987-.689,1.932.331,2.909.026a6.787,6.787,0,0,0,3.4.125,17.25,17.25,0,0,1,2.128.129,25.765,25.765,0,0,1,6.362.53,5.347,5.347,0,0,0,.861.01q2.186.125,4.369.269a1.962,1.962,0,0,1,.548.147,18.543,18.543,0,0,0,4.121.621,7.656,7.656,0,0,1,2.547.448,14.239,14.239,0,0,0,3.447.623c1.512.219,3.157.209,4.3,1.012.442.313.661-.335,1.216-.074a16.119,16.119,0,0,0,4.837,1.131c.609.072-.119.834.777.414.522-.245.732.114,1.058.135.6.042.8.454,1.2.474,2.531.125,4.337,1.29,6.675,1.677a1.7,1.7,0,0,1,.971.412,1.658,1.658,0,0,0,1.525.607c1.087-.056,1.706.522,2.663.577,1.109.852,2.95,1.024,4.263,1.738,1.248.681,2.88,1.1,4.179,1.8a18.985,18.985,0,0,0,2.87,1.187,18.6,18.6,0,0,1,2.26,1.109c1.38.655,2.425,1.5,3.8,2.167a20.78,20.78,0,0,1,3.186,2.212c.306.223.509.5.845.707a20.276,20.276,0,0,1,4.808,4.072,16.988,16.988,0,0,1,3.157,4.487c.352.876.838,1.732,1.151,2.613.439,1.231,1.067,2.451.88,3.74.793.8.326,1.687.426,2.533a1.93,1.93,0,0,1-.41,1.613c-.213.249.506.488.035.856-.277.219-.084.681-.042,1.032.113.938-.971,3.443-1.77,4.441a28.409,28.409,0,0,1-4.282,4.6,4.079,4.079,0,0,1-1.438.848c-.545.179-.755.761-1.3.914-.674.189-.945.589-1.58.795a10.123,10.123,0,0,0-1.719.994c-.558.3-.909.816-1.906.715a.937.937,0,0,0-.48.225,11.688,11.688,0,0,1-3.589,1.414,23.635,23.635,0,0,0-2.715,1.109c-1.283.566-2.538,1.157-3.811,1.73-.929.418-1.844.848-2.767,1.268-.78.354-1.886.317-2.454.9a5.873,5.873,0,0,1-2.225.85c-1.538.5-3.318.623-4.843,1.179-.368.135-.829.241-1.245.392a11.11,11.11,0,0,1-3.418.709,13.786,13.786,0,0,0-5.127,1.067,11.518,11.518,0,0,1-1.815.506c-2.235.56-4.547.974-6.852,1.408a11.305,11.305,0,0,1-1.387.179,4.253,4.253,0,0,0-1.235.082,7.756,7.756,0,0,1-3.608.444,10.875,10.875,0,0,0-2.215.237,8.5,8.5,0,0,1-2.409.321,7.641,7.641,0,0,0-1.735.287,23.5,23.5,0,0,1-6.275.7m-76.593-59.4a7.154,7.154,0,0,0-1.583.016c-3.083.882-6.33,1.541-9.348,2.507a6.92,6.92,0,0,0-2.248.838c-2.067.06-3.276,1.33-5.333,1.4-1.712.978-4,1.388-5.853,2.236-1.19.546-2.538.968-3.818,1.406-2.383.814-4.492,1.856-6.794,2.73-2.393.906-4.6,1.993-6.868,3.015-2.654,1.193-5,2.575-7.494,3.863-1.554.8-2.954,1.732-4.6,2.461-.529.233-.693.562-1.151.771a6.418,6.418,0,0,0-1.422.691c-.426.378-1.264.5-1.525.874-.355.516-1.283.562-1.712,1a25.487,25.487,0,0,1-5.034,3.62,9.27,9.27,0,0,0-1.174.89c-1.2,1-2.167,2.107-3.331,3.11-1.651,1.424-3.012,2.943-4.456,4.435-.4.414-.48.95-.909,1.35a12.136,12.136,0,0,0-1.7,2.613c-.787,1.167-.887,2.485-2.064,3.574-.1.088-.132.307-.052.341.751.321.171.585-.064.862a1.61,1.61,0,0,0-.451,1.213,6.889,6.889,0,0,1-.023,2.372c-.232.88.664,1.525.958,2.288.129.333.745.617,1.212.874.774.426,1.6.82,2.418,1.219.593.289,1.225.546,1.8.846.632.327,1.454.4,2.154.695a17.952,17.952,0,0,0,4.224,1.067c.751.112,1.383.317,2.08.466a18.282,18.282,0,0,1,2.344.378,2.726,2.726,0,0,0,.909.239,42.523,42.523,0,0,1,4.785.659c1.786.181,3.566.482,5.369.681.455.05.884.211,1.341.247a8.935,8.935,0,0,1,1.706.04,8.2,8.2,0,0,0,2.228.245c.742.048,1.464.211,2.206.247,2.248.106,4.543-.211,6.752.273,3.644-.191,7.239.289,10.873.273,6.788-.03,13.579,0,20.37-.02a15.766,15.766,0,0,0,3.966-.211,4.42,4.42,0,0,1,2.254.114,8.89,8.89,0,0,0,2.125-.139c.3-.008.729.283.88.225.435-.169,1.1-.139,1.309-.271.587-.37,1.074.211,1.39,0a3.073,3.073,0,0,1,1.806-.227c2.6-.018,5.2,0,7.8-.012a14.786,14.786,0,0,0,2.225-.207,17.419,17.419,0,0,1,3.918-.337c1.358.09,2.767-.078,4.108.048,1.283.119,2.509-.5,3.773-.036.068.026.235-.064.361-.084.558-.086,1-.585,1.693-.173a6.76,6.76,0,0,1,2.206-.273,26.468,26.468,0,0,0,3.028-.014c.558-.048,1.042-.434,1.6-.478s1.287.317,1.741.205a20.963,20.963,0,0,1,4.392-.231c1.445-.05,2.976.2,4.221-.5a1.1,1.1,0,0,1,.406-.034,10.094,10.094,0,0,0,2.8-.185c.942.378,1.757-.207,2.738-.121a11.932,11.932,0,0,0,3.241-.283,15.174,15.174,0,0,1,2.5-.462c.9-.038,1.761-.116,2.651-.231,1.7-.223,3.479-.217,5.224-.3a3.47,3.47,0,0,0,.851-.016,9.913,9.913,0,0,1,2.915-.482c1.035-.1,2.106.024,2.905-.548.123-.088.555-.014.845-.012a27.424,27.424,0,0,0,6.536-.9,8.137,8.137,0,0,1,.98-.151,15.4,15.4,0,0,0,2.609-.3,7.769,7.769,0,0,1,1.8-.235c.954-.066,1.915-.135,2.847-.273a10.494,10.494,0,0,0,1.432-.44,3.988,3.988,0,0,1,1.283-.317,10.528,10.528,0,0,0,3.55-.542c.864-.219,1.773-.368,2.67-.536a17.377,17.377,0,0,0,2.357-.482,7.481,7.481,0,0,0,1.39-.494c.638-.368.906.4,1.5.181.69-.259,1.654-.151,2.2-.589a2.378,2.378,0,0,1,1.854-.468c.442-.611,2.09.177,2.283-.727,1,.163,1.4-.641,2.189-.558.642.068,1.022-.319,1.686-.169.258.058.806-.3,1.174-.506,1.48-.822,3.576-.97,5.127-1.723.119-.058.558.125.851.2a1.911,1.911,0,0,1,1.873-1.012.771.771,0,0,0,.364-.094,4.93,4.93,0,0,1,2.083-.789,7.427,7.427,0,0,0,1.986-.884,10.606,10.606,0,0,1,1.064-.343q1.151-.352,2.3-.7c.158-.751,1.487-.854,2.1-1.388.468-.408,1.645-.516,2.109-.924a13.812,13.812,0,0,1,2.057-1.153c1.258-.751,2.2-1.728,3.918-2.179.074-.02.142-.167.132-.171-.709-.247.039-.434.132-.593.155-.265.58-.466.861-.707.435-.372,1.042-.725,1.216-1.141a6.011,6.011,0,0,1,.884-1.235,11.26,11.26,0,0,0,1.316-2.308,13.389,13.389,0,0,0,.861-2.553,2.375,2.375,0,0,0-.364-1.746,20.5,20.5,0,0,1-.932-2.41c-.171-.388-.738-.725-.813-1.109-.3-1.545-1.625-2.724-3.37-3.778a2,2,0,0,1-.555-.388,3.98,3.98,0,0,0-2.612-2.091c-.41-.743-1.506-1.135-2.348-1.645a7.127,7.127,0,0,0-2.709-1.414c-.184-.564-1.187-.617-1.674-1.006a5.333,5.333,0,0,0-2.47-1.079,6.009,6.009,0,0,1-1.832-.791,27.458,27.458,0,0,0-4.747-2.3c-.674-.3-1.374-.564-2.025-.9a17.824,17.824,0,0,0-2.438-.757c-.358-.114-.68-.273-1.025-.406a7.637,7.637,0,0,0-3.06-.954c-.7-.014-1.325-.585-2.077-.727A30.241,30.241,0,0,1,143.4-22.7a10.607,10.607,0,0,0-1.119-.267,8.624,8.624,0,0,0-2.441-.482c-1.2.125-1.777-.432-2.68-.6-1.474-.267-2.757-.9-4.4-.852-.048,0-.093-.076-.155-.088a5.79,5.79,0,0,1-1.815-.542c-.542-.311-1.49.108-2.186-.285-.432-.247-1.151-.106-1.767-.243a21.506,21.506,0,0,0-3.1-.822c-2-.117-3.882-.637-5.914-.587a4.3,4.3,0,0,1-1.048-.052,13.736,13.736,0,0,0-4.227-.462,3.255,3.255,0,0,1-1.545-.285,3.892,3.892,0,0,0-1.78-.253c-2.783.187-5.5-.362-8.274-.281-.364.012-.745-.231-1.119-.231s-.735.2-1.122.235a2.172,2.172,0,0,1-1.013-.068,2.476,2.476,0,0,0-1.406-.181c-1.88-.012-3.757.022-5.633-.012-1.841-.034-3.6.47-5.456.273a.5.5,0,0,0-.213,0,6.659,6.659,0,0,1-2.857.253c-.983,0-1.886.245-2.841.331-1.174.1-2.393.058-3.505.237a28.737,28.737,0,0,1-5.072.5,2.5,2.5,0,0,0-.806.082c-1.609.574-3.553.4-5.23.926-.764.237-1.841.092-2.734.442-.764.3-1.774.267-2.664.542a20.23,20.23,0,0,1-3.724.85,33.419,33.419,0,0,0-5.072.864,15.954,15.954,0,0,0-3.741,1.209,10.359,10.359,0,0,1-2.077.755,8.775,8.775,0,0,0-2.693.836,1.255,1.255,0,0,1-.777.08c-.532-.177-.764-.215-1.042.215a2.213,2.213,0,0,1-1.309.554c-2.015.235-3.592,1.107-5.579,1.366a2.271,2.271,0,0,0-.9.249c-.916.665-2.528.739-3.344,1.482a.561.561,0,0,1-.348.108c-1.2-.1-2.019.438-3.038.643a21.141,21.141,0,0,1-2.1.4c-.674.066-.626-.211-.384-.486.2.072.39.141.651.237.048-.46-.048-.876.164-1.221a2.275,2.275,0,0,1,1.312-.836.621.621,0,0,0,.3-.185c.174-.225-.351-.615.558-.691.4-.034.4-.587,1.083-.566,0-.372.574-.442.909-.637-.684-.341.281-.538.19-.826.706.042.661-.546,1.08-.56.858-.03.419-.619,1.009-.717.532-.09.958-.257,1.038-.583l1.016.315c-.184-.968,1.148-1.266,1.87-1.94" transform="translate(54.932 41.75) rotate(8)" fill="#fdff28"/>
</svg>
