<svg xmlns="http://www.w3.org/2000/svg" width="287.889" height="101.263" viewBox="0 0 287.889 101.263">
  <path id="Path_7378" data-name="Path 7378" d="M-1154.6,352.038c-5.149.45-10.294.95-15.447,1.339-8.966.678-17.929,1.465-26.909,1.882-13.032.6-26.077,1.289-39.116,1.285q-43.616-.011-87.23-.729c-16.915-.274-33.819-1.206-50.73-1.76-9.6-.314-17.127-5.978-26.491-4.867-9.821,1.587-11.138,6.961-9.646,9.692,1.514,2.773,5.7,6.169,8.547,4.72,8.241.824,18.9,2.218,28.073,2.507,13.874.437,27.738,1.318,41.614,1.551,30.622.515,61.248,1.009,91.873.987,16.968-.012,33.943-.926,50.9-1.732,9.749-.464,16.285-.427,26.019-1.214.471-.038.948-.005,1.794-.005-.578.466-.932.777-1.312,1.053-7.132,5.17-11.2,9.086-18.188,14.439-8.6,6.588-15.766,14.665-22.649,22.973a5.954,5.954,0,0,0,.816,8.463c2.692,2.191,6.33,1.776,8.72-1.067,7.912-9.414,16.313-18.308,26.48-25.382,5.863-4.079,11.646-8.272,17.495-12.371,4.386-3.074,6.87-3.339,11.176-6.52a43.535,43.535,0,0,1,10.027-5.595c3.938-.241,6.358-3.143,5.942-6.74-.4-3.429.279-6.512-3.591-6.076,1.386.521-8.852-1.938-10.792-2.857-16.63-9.648-31.225-15.422-48.778-23.282-6.18-2.767-12.087-6.139-18.123-9.226a6.071,6.071,0,0,0-7.831,1.685,5.993,5.993,0,0,0,.6,7.823A9.4,9.4,0,0,0-1209,324.6c10.681,5.225,21.392,10.386,32.062,15.632,7.516,3.695,14.98,7.493,22.468,11.246Q-1154.532,351.757-1154.6,352.038Z" transform="translate(1410.682 -312.754)"/>
</svg>
