<svg xmlns="http://www.w3.org/2000/svg" width="600" height="53" viewBox="0 0 600 53" preserveAspectRatio="none">
  <path id="Union_12" data-name="Union 12" d="M-2085.839-1499.51a5,5,0,0,0-.872-.781c1.533-1.414,1.457-1.351-.538-2.2-1.679-.72-2.814-1.758-2.523-3.042a2.081,2.081,0,0,0-.739-2.187,2.661,2.661,0,0,1-.9-1.192c-.337-1.71-.508-3.433-.822-5.148-.161-.855-.54-1.693-.754-2.546a2.3,2.3,0,0,1,.022-1.087c.239-.979-.422-1.635-2.052-1.732-1.935-.115-3.893-.18-5.833-.142-4.837.092,2.9.449-1.917.7a4.746,4.746,0,0,1-4.382-1.908,17.881,17.881,0,0,0-3.5-2.69,5.186,5.186,0,0,1-2.354-3.6c-.312-1.578-.829-3.136-1.208-4.709a74.191,74.191,0,0,1-1.724-7.587c-.365-2.718.811-3.306,5.385-3.259.564.008,1.128-.03,1.694-.067.524-.034,1.048-.068,1.573-.067,1.284,0,2.568.082,3.855.132.631.025,1.267.094,1.895.077,1.658-.045,3.317-.122,4.973-.187q1.078-.041,2.154-.09a4.544,4.544,0,0,1,1.1-.055c.017,0,.033,0,.05.009a6.471,6.471,0,0,1,2.646-1.678c2.455-.952,2.551-.885.641-2.413a5.987,5.987,0,0,0,1.071-.863c1-1.469,3.2-1.753,5.792-1.681,3.621.1,7.124.863,10.833.5a.816.816,0,0,1,.336.027,7.1,7.1,0,0,0,4.214.16,8.267,8.267,0,0,1,1.638-.035c5.232.112,10.438.855,15.715.095a9.855,9.855,0,0,1,2.038.12c1.11.092,2.214.257,3.334.284,2.928.08,5.867.174,8.8.137,6.737-.085,13.469-.271,20.206-.356.836-.011,1.692.057,2.544.124a18.673,18.673,0,0,0,3.55.062c3.918-.451,7.752-.125,11.622-.109,1.775.007,3.55-.011,5.325-.029,2.438-.025,4.879-.05,7.329-.009,1.982.033,3.967.017,5.955,0,3.489-.028,6.983-.056,10.477.184a51.524,51.524,0,0,0,5.425-.209,21.116,21.116,0,0,1,2.965-.05,14.89,14.89,0,0,0,5.367-.1,10.907,10.907,0,0,1,2.714-.2c5.458.1,10.906.459,16.342-.189a5.944,5.944,0,0,1,1.369-.058c.713.09,1.425.148,2.137.182,1.106-1.121,3.123-1.345,5.462-1.279,3.621.1,7.124.863,10.833.5a.808.808,0,0,1,.337.027,5.072,5.072,0,0,0,1.718.387l1.363-.05c.373-.043.751-.105,1.134-.178a8.22,8.22,0,0,1,1.638-.034c.609.013,1.217.034,1.825.061q.839-.018,1.678-.023c3.833-.018,7.659-.14,11.526-.05,2.074.05,4.172-.059,6.285-.168,2.2-.113,4.414-.227,6.636-.161,1.962.058,3.93.045,5.9.033.892-.005,1.785-.012,2.677-.01.5,0,1,0,1.5,0,.994.006,1.988.012,2.978-.012,2.97-.07,5.941-.207,8.913-.259a35.3,35.3,0,0,1,5.487.122,3.938,3.938,0,0,1,1.924.818c3.519-.278,6.98-.012,10.47,0,1.78.007,3.559-.011,5.34-.029,2.433-.025,4.87-.05,7.315-.009,1.982.033,3.967.017,5.955,0,3.488-.028,6.983-.056,10.477.184a51.994,51.994,0,0,0,5.425-.209,21.114,21.114,0,0,1,2.965-.05,14.893,14.893,0,0,0,5.367-.1,10.9,10.9,0,0,1,2.714-.2c5.458.1,10.906.459,16.341-.189a5.917,5.917,0,0,1,1.37-.058,47.922,47.922,0,0,0,8.656.048c1.9-.1,3.794-.207,5.7-.163q.6.014,1.2.018a13.737,13.737,0,0,1,3.432-.247c.747.021,1.49.069,2.229.131,2.3-.084,4.6-.186,6.9-.2,3.832-.018,7.659-.14,11.527-.05,2.074.05,4.172-.059,6.284-.168,2.2-.113,4.414-.227,6.637-.161,1.962.058,3.931.045,5.9.033.892-.005,1.784-.011,2.677-.01.5,0,1,0,1.505,0,.994.006,1.988.012,2.978-.012,2.97-.07,5.94-.207,8.913-.259a35.309,35.309,0,0,1,5.488.122,3.88,3.88,0,0,1,2.625,1.547q1.722-.029,3.445-.051c.837-.011,1.693.057,2.545.124a18.717,18.717,0,0,0,3.549.063c3.917-.451,7.752-.125,11.622-.11,1.78.007,3.559-.011,5.34-.029,2.433-.025,4.87-.05,7.315-.009,1.982.033,3.968.017,5.956,0,3.488-.028,6.983-.056,10.476.184a51.987,51.987,0,0,0,5.425-.209,21.116,21.116,0,0,1,2.965-.05,14.892,14.892,0,0,0,5.367-.1,10.906,10.906,0,0,1,2.714-.2c5.457.1,10.905.459,16.341-.189a5.912,5.912,0,0,1,1.369-.058,47.929,47.929,0,0,0,8.657.048c1.9-.1,3.794-.207,5.7-.163,4.568.107,9.174-.272,13.768-.3,3.832-.018,7.659-.14,11.526-.05,2.074.05,4.172-.059,6.284-.168,2.2-.113,4.414-.227,6.637-.161,1.962.058,3.93.045,5.9.033.892-.005,1.785-.011,2.677-.01.5,0,1,0,1.5,0,.994.006,1.988.012,2.978-.012,2.97-.07,5.941-.207,8.913-.259a35.311,35.311,0,0,1,5.488.122c4.063.608,4.038,5.9,3.94,7.854.269,0,.545,0,.809.022a12.228,12.228,0,0,0,5.606-.76c2.349,1.292,4.5,2.513,4.149,4.642a3.45,3.45,0,0,0,.927,2.227,3.563,3.563,0,0,1-.008,4.415c-.553.863-.208,1.91-.412,2.865-.216,1.027.347,2,.377,2.994.023.788.485,5.283.45,5.548a4.164,4.164,0,0,1-.827,1.9,2.2,2.2,0,0,1-1.442.7,28.271,28.271,0,0,0-3.512.02,18.04,18.04,0,0,1-5.783-.357c-1.777-.491-6.513.586-6.719,1.291-.558,1.937.837,3.73.837,5.618,0,1.077.465,2.159.452,3.238-.007.5-.618,1-1.022,1.486-.744.892-.945,1.615.241,2.566,3.164,2.523,1.571,3.114-2.317,3.809a25.045,25.045,0,0,1-4.44.152c-2.41-.025-4.815-.13-7.219-.172-1.208-.02-27.006,1.1-28.217,1.109-2.319.022-4.641-.015-6.946.085-1.8.078-3.6-.01-5.388-.1-1.708-.084-3.4-.167-5.077-.106-2.092.074-4.171.061-6.246.048-1.03-.006-2.059-.013-3.089-.008-1.571,0-3.144-.048-4.715-.1-2.151-.073-4.3-.145-6.435-.069-1.545.055-3.086-.026-4.624-.106a34.29,34.29,0,0,0-7,.109,4.155,4.155,0,0,1-1.108-.042c-4.407-.553-8.818-.182-13.233-.05a7.893,7.893,0,0,1-2.2-.159,10.682,10.682,0,0,0-4.347-.057,15.531,15.531,0,0,1-2.4-.022,36.764,36.764,0,0,0-4.395-.153c-2.833.246-5.669.246-8.5.246-1.6,0-3.206,0-4.805.045-1.981.054-3.953.05-5.923.046-1.442,0-2.883-.006-4.324.014a69.744,69.744,0,0,1-9.411-.013,13.352,13.352,0,0,0-2.869.082,20.126,20.126,0,0,1-2.066.132c-5.455-.024-10.908-.146-16.363-.174-2.375-.012-4.755.1-7.124.192-.907.035-1.8.192-2.7.284a7.011,7.011,0,0,1-1.651.125c-4.277-.656-8.488.063-12.725.2a5.987,5.987,0,0,1-1.327-.02,5.118,5.118,0,0,0-3.41.18.617.617,0,0,1-.274.025c-3.006-.307-18.419.146-21.352.264-1.792.073-3.355-.093-4.283-.977-1.482.022-2.959.013-4.435,0-1.03-.006-2.06-.013-3.089-.008-1.571,0-3.144-.048-4.715-.1-2.15-.073-4.3-.145-6.434-.069-1.545.055-3.085-.026-4.624-.106a34.29,34.29,0,0,0-7,.109,4.151,4.151,0,0,1-1.108-.042c-4.408-.553-8.818-.182-13.233-.05a7.892,7.892,0,0,1-2.2-.159,10.682,10.682,0,0,0-4.347-.057,15.533,15.533,0,0,1-2.4-.022,36.774,36.774,0,0,0-4.4-.153c-2.833.246-5.669.246-8.5.246-1.6,0-3.207,0-4.8.045-1.981.054-3.954.05-5.924.046-1.442,0-2.882-.006-4.324.014a69.735,69.735,0,0,1-9.41-.013,13.359,13.359,0,0,0-2.87.082,20.1,20.1,0,0,1-2.066.132q-1.013,0-2.026-.013c-1.023.058-2.1.015-3.128.006-1.375-.014-2.749-.054-4.121-.094q-2.089-.028-4.178-.051c-2.307.076-7.82.3-13.283.527a3.878,3.878,0,0,1-1.1.051l-.029,0c-6.263.259-12.161.5-12.726.509-2.319.022-4.641-.015-6.945.085-1.8.077-3.6-.01-5.386-.1-1.179-.058-2.353-.116-3.519-.126-4.54.09-9.034.23-10.482.288a9.221,9.221,0,0,1-3-.263c-.709-.019-1.419-.042-2.128-.066-2.15-.073-4.3-.145-6.434-.068-1.545.055-3.085-.026-4.623-.106a34.251,34.251,0,0,0-7,.109,4.164,4.164,0,0,1-1.108-.043c-4.407-.553-8.818-.182-13.233-.049a7.909,7.909,0,0,1-2.2-.16,10.68,10.68,0,0,0-4.347-.057,15.546,15.546,0,0,1-2.4-.022,36.822,36.822,0,0,0-4.4-.153c-4.437.387-8.885.168-13.305.292-1.978.054-3.947.05-5.913.046-1.445,0-2.889-.006-4.334.014a69.754,69.754,0,0,1-9.41-.013,13.356,13.356,0,0,0-2.871.083,20.331,20.331,0,0,1-2.064.132c-5.455-.025-10.908-.147-16.363-.175-2.375-.012-4.755.1-7.124.192-.908.035-1.8.192-2.7.284a7,7,0,0,1-1.651.125c-4.277-.656-8.489.062-12.725.2a6,6,0,0,1-1.327-.02,5.119,5.119,0,0,0-3.409.18.62.62,0,0,1-.274.025c-3.005-.307-18.419.147-21.352.264-.24.01-.476.015-.707.015C-2083.631-1498-2085.114-1498.325-2085.839-1499.51Zm526.23-47.862a7.282,7.282,0,0,1-1.078.16c-4.312.146-8.622.281-12.931.431a10.456,10.456,0,0,0-1.18.167c.007.082.015.162.022.239,13.851-.626,27.626-.541,41.713-.01-.48-.326-.671-.583-.943-.619-1.138-.146-2.3-.229-3.453-.336-1.221-.11-2.438-.237-3.664-.319a9.923,9.923,0,0,0-1.827.027,7,7,0,0,1-3.327-.132,1.768,1.768,0,0,0-1.008-.057,7.657,7.657,0,0,1-3.232.229,14.646,14.646,0,0,0-4.606.033,3.9,3.9,0,0,1-1.392.024,6.824,6.824,0,0,0-.988-.069A11.257,11.257,0,0,0-1559.609-1547.373Z" transform="translate(2116 1551)" fill="#fc4daf"/>
</svg>
