<svg id="Group_7217" data-name="Group 7217" xmlns="http://www.w3.org/2000/svg" width="632.867" height="69.331" viewBox="0 0 632.867 69.331">
  <path id="Path_7212" data-name="Path 7212" d="M521.877,27.754a4.841,4.841,0,0,1-1.887,2.518,6.933,6.933,0,0,1-3.293.923c-7-.314-14.043.7-21.22-.447-4.056-.652-14.87.778-15.34,1.714-1.274,2.571,1.91,4.95,1.91,7.454-.006,1.429,1.061,2.865,1.033,4.3-.017.658-1.411,1.333-2.335,1.972-1.7,1.184-2.157,2.144.551,3.4,7.222,3.348,3.585,4.132-5.289,5.056a98.332,98.332,0,0,1-10.137.2c-5.5-.033-10.992-.172-16.482-.228-2.759-.026-61.652,1.459-64.417,1.472-5.295.03-10.6-.02-15.856.112-8.054.2-16.068-.437-23.893-.271-7.148.149-14.227.036-21.312.053-8.49.017-17.009-.4-25.454-.225-8.88.185-17.7-.778-26.544,0a16.264,16.264,0,0,1-2.53-.056c-10.062-.735-20.13-.242-30.209-.066a30.812,30.812,0,0,1-5.025-.212,41.664,41.664,0,0,0-9.924-.076c-1.738.129-3.654.007-5.479-.03-3.356-.069-6.781-.367-10.033-.2-10.131.513-20.285.222-30.376.387-7.831.126-15.6.017-23.394.079-7.154.056-14.238.49-21.484-.017-3.545-.251-7.5.3-11.267.285-12.454-.033-24.9-.2-37.357-.232-5.421-.017-10.854.129-16.264.255-2.071.046-4.107.255-6.156.377a27.405,27.405,0,0,1-3.769.165c-9.764-.87-19.378.083-29.051.271a23.558,23.558,0,0,1-3.029-.026,19.672,19.672,0,0,0-7.785.238,2.354,2.354,0,0,1-.625.033c-6.861-.407-42.05.2-48.745.351-4.79.112-8.863-.208-10.733-1.985a11.51,11.51,0,0,0-1.991-1.036c3.5-1.876,3.327-1.793-1.228-2.925-3.832-.956-6.425-2.333-5.76-4.036.43-1.1.011-2-1.687-2.9-.9-.48-1.87-1.029-2.054-1.582-.769-2.27-1.159-4.556-1.876-6.832-.367-1.135-1.233-2.247-1.721-3.378a1.83,1.83,0,0,1,.052-1.443c.545-1.3-.964-2.17-4.687-2.3-4.417-.152-8.886-.238-13.315-.189-11.043.122,6.626.6-4.377.923-5.943.175-8.112-1.323-10-2.531a45.815,45.815,0,0,0-8-3.57c-3.465-1.307-4.767-3-5.375-4.778-.711-2.094-1.893-4.162-2.759-6.25-1.4-3.352-3.161-6.693-3.935-10.068-.832-3.606,1.853-4.387,12.294-4.324,2.484.02,4.968-.182,7.458-.179,2.931,0,5.863.109,8.8.175,1.44.033,2.891.126,4.326.1,3.786-.06,7.572-.162,11.353-.248q2.461-.055,4.916-.119a17.871,17.871,0,0,1,2.513-.073c.04.007.075.007.115.013a18.162,18.162,0,0,1,6.041-2.227c5.6-1.264,5.823-1.175,1.463-3.2a14.683,14.683,0,0,0,2.444-1.145c2.277-1.949,7.3-2.326,13.223-2.23,8.267.132,16.263,1.145,24.731.658a3.146,3.146,0,0,1,.769.036,27.46,27.46,0,0,0,9.62.212,32.419,32.419,0,0,1,3.74-.046c11.944.149,23.83,1.135,35.877.126A38.7,38.7,0,0,1,44.3-9.9c2.536.122,5.054.341,7.613.377,6.683.106,13.4.232,20.084.182,15.38-.112,30.749-.361,46.129-.473,4.641-.033,9.546.543,13.911.248,8.943-.6,17.7-.165,26.532-.146,9.62.023,19.224-.142,28.89-.05,12.466.122,24.995-.255,37.512.245,4.021.162,8.244-.185,12.386-.278,2.255-.053,4.618-.2,6.769-.066A58.115,58.115,0,0,0,256.378-10a42.423,42.423,0,0,1,6.2-.261c12.46.132,24.9.609,37.306-.251a23.129,23.129,0,0,1,3.127-.076c10.94.8,21.805-.3,32.774-.152,10.429.142,20.945-.361,31.431-.394,8.748-.023,17.485-.185,26.314-.066,9.666.136,19.551-.609,29.5-.437,6.505.112,13.045.026,19.585.03,3.413,0,6.832.04,10.234-.01,6.781-.093,13.562-.275,20.348-.344,4.182-.036,8.622-.175,12.529.162,9.276.807,9.219,7.835,9,10.422.614,0,1.245.007,1.847.03a46.718,46.718,0,0,0,12.8-1.009C514.724-.644,519.628.977,518.831,3.8c-.275.956.981,2.022,2.117,2.955,2.444,1.975,2.2,3.838-.017,5.86-1.262,1.145-.476,2.534-.941,3.8-.493,1.363.792,2.653.86,3.974.052,1.046,1.107,7.011,1.027,7.362M483.734-5.9a8.911,8.911,0,0,0-2.151-.821c-2.6-.2-5.249-.3-7.882-.447-2.788-.146-5.565-.314-8.364-.424a38.974,38.974,0,0,0-4.171.036,27.232,27.232,0,0,1-7.6-.175,6.837,6.837,0,0,0-2.3-.076,29.682,29.682,0,0,1-7.377.3,57.293,57.293,0,0,0-10.515.043,15.211,15.211,0,0,1-3.178.033,36.029,36.029,0,0,0-7.068.215c-.815.089-1.646.2-2.461.212Q405.9-6.7,391.15-6.424c-.9.017-1.8.146-2.7.222q.026.164.052.318c31.621-.83,63.069-.718,95.229-.013" transform="translate(110.178 12.022)" fill="#52f0f1"/>
</svg>
