<?xml version="1.0" encoding="utf-8"?>
<!-- Generator: Adobe Illustrator 23.0.1, SVG Export Plug-In . SVG Version: 6.00 Build 0)  -->
<svg version="1.1" id="Group_7218" xmlns="http://www.w3.org/2000/svg" xmlns:xlink="http://www.w3.org/1999/xlink" x="0px" y="0px"
	 viewBox="0 0 632.9 69.3" style="enable-background:new 0 0 632.9 69.3;" xml:space="preserve">
<style type="text/css">
	.st0{fill:#A6FF42;}
</style>
<path id="Path_7212" class="st0" d="M632.1,39.8c-0.3,1-1,1.9-1.9,2.5c-1,0.6-2.1,0.9-3.3,0.9c-7-0.3-14,0.7-21.2-0.4
	c-4.1-0.7-14.9,0.8-15.3,1.7c-1.3,2.6,1.9,5,1.9,7.5c0,1.4,1.1,2.9,1,4.3c0,0.7-1.4,1.3-2.3,2c-1.7,1.2-2.2,2.1,0.6,3.4
	c7.2,3.3,3.6,4.1-5.3,5.1c-3.4,0.2-6.8,0.3-10.1,0.2c-5.5,0-11-0.2-16.5-0.2c-2.8,0-61.7,1.5-64.4,1.5c-5.3,0-10.6,0-15.9,0.1
	c-8.1,0.2-16.1-0.4-23.9-0.3c-7.1,0.1-14.2,0-21.3,0.1c-8.5,0-17-0.4-25.5-0.2c-8.9,0.2-17.7-0.8-26.5,0c-0.8,0-1.7,0-2.5-0.1
	c-10.1-0.7-20.1-0.2-30.2-0.1c-1.7,0.1-3.4,0-5-0.2c-3.3-0.4-6.6-0.4-9.9-0.1c-1.7,0.1-3.7,0-5.5,0c-3.4-0.1-6.8-0.4-10-0.2
	c-10.1,0.5-20.3,0.2-30.4,0.4c-7.8,0.1-15.6,0-23.4,0.1c-7.2,0.1-14.2,0.5-21.5,0c-3.5-0.3-7.5,0.3-11.3,0.3
	c-12.5,0-24.9-0.2-37.4-0.2c-5.4,0-10.9,0.1-16.3,0.3c-2.1,0-4.1,0.3-6.2,0.4c-1.3,0.1-2.5,0.2-3.8,0.2c-9.8-0.9-19.4,0.1-29.1,0.3
	c-1,0.1-2,0-3,0c-2.6-0.4-5.2-0.4-7.8,0.2c-0.2,0-0.4,0-0.6,0c-6.9-0.4-42.1,0.2-48.7,0.4c-4.8,0.1-8.9-0.2-10.7-2
	c-0.6-0.4-1.3-0.8-2-1c3.5-1.9,3.3-1.8-1.2-2.9c-3.8-1-6.4-2.3-5.8-4c0.4-1.1,0-2-1.7-2.9c-0.9-0.5-1.9-1-2.1-1.6
	c-0.8-2.3-1.2-4.6-1.9-6.8c-0.4-1.1-1.2-2.2-1.7-3.4c-0.2-0.5-0.2-1,0.1-1.4c0.5-1.3-1-2.2-4.7-2.3c-4.4-0.2-8.9-0.2-13.3-0.2
	c-11,0.1,6.6,0.6-4.4,0.9c-5.9,0.2-8.1-1.3-10-2.5c-2.5-1.4-5.2-2.6-8-3.6c-3.5-1.3-4.8-3-5.4-4.8c-0.7-2.1-1.9-4.2-2.8-6.2
	c-1.4-3.4-3.2-6.7-3.9-10.1C-0.7,10.8,2,10,12.4,10.1c2.5,0,5-0.2,7.5-0.2c2.9,0,5.9,0.1,8.8,0.2c1.4,0,2.9,0.1,4.3,0.1
	c3.8-0.1,7.6-0.2,11.4-0.2c1.6,0,3.3-0.1,4.9-0.1c0.8-0.1,1.7-0.1,2.5-0.1c0,0,0.1,0,0.1,0c1.9-1.1,3.9-1.9,6-2.2
	c5.6-1.3,5.8-1.2,1.5-3.2c0.8-0.3,1.7-0.7,2.4-1.1c2.3-1.9,7.3-2.3,13.2-2.2c8.3,0.1,16.3,1.1,24.7,0.7c0.3,0,0.5,0,0.8,0
	c3.2,0.6,6.4,0.7,9.6,0.2c1.2-0.1,2.5-0.1,3.7,0C125.9,2,137.8,3,149.8,2c1.6,0,3.1,0,4.7,0.2c2.5,0.1,5.1,0.3,7.6,0.4
	c6.7,0.1,13.4,0.2,20.1,0.2c15.4-0.1,30.7-0.4,46.1-0.5c4.6,0,9.5,0.5,13.9,0.2c8.9-0.6,17.7-0.2,26.5-0.1c9.6,0,19.2-0.1,28.9-0.1
	c12.5,0.1,25-0.3,37.5,0.2c4,0.2,8.2-0.2,12.4-0.3c2.3-0.1,4.6-0.2,6.8-0.1c4.1,0.4,8.2,0.3,12.3-0.1c2.1-0.2,4.1-0.3,6.2-0.3
	c12.5,0.1,24.9,0.6,37.3-0.3c1-0.1,2.1-0.1,3.1-0.1C424.1,2.2,435,1.1,446,1.3c10.4,0.1,20.9-0.4,31.4-0.4c8.7,0,17.5-0.2,26.3-0.1
	c9.7,0.1,19.6-0.6,29.5-0.4c6.5,0.1,13,0,19.6,0c3.4,0,6.8,0,10.2,0c6.8-0.1,13.6-0.3,20.3-0.3c4.2,0,8.6-0.2,12.5,0.2
	c9.3,0.8,9.2,7.8,9,10.4c0.6,0,1.2,0,1.8,0c4.3,0.3,8.6-0.1,12.8-1c5.4,1.7,10.3,3.3,9.5,6.2c-0.3,1,1,2,2.1,3c2.4,2,2.2,3.8,0,5.9
	c-1.3,1.1-0.5,2.5-0.9,3.8c-0.5,1.4,0.8,2.7,0.9,4C631.1,33.5,632.1,39.4,632.1,39.8 M593.9,6.1c-0.7-0.4-1.4-0.6-2.2-0.8
	c-2.6-0.2-5.2-0.3-7.9-0.4c-2.8-0.1-5.6-0.3-8.4-0.4c-1.4-0.1-2.8-0.1-4.2,0c-2.5,0.3-5.1,0.2-7.6-0.2c-0.8-0.2-1.5-0.2-2.3-0.1
	c-2.4,0.4-4.9,0.5-7.4,0.3c-3.5-0.3-7-0.3-10.5,0c-1.1,0.1-2.1,0.1-3.2,0c-2.4-0.2-4.7-0.1-7.1,0.2c-0.8,0.1-1.6,0.2-2.5,0.2
	c-9.8,0.2-19.7,0.4-29.5,0.6c-0.9,0-1.8,0.1-2.7,0.2c0,0.1,0,0.2,0.1,0.3C530.3,5.3,561.7,5.4,593.9,6.1"/>
</svg>
