<?xml version="1.0" encoding="utf-8"?>
<!-- Generator: Adobe Illustrator 23.0.1, SVG Export Plug-In . SVG Version: 6.00 Build 0)  -->
<svg version="1.1" id="Group_6258" xmlns="http://www.w3.org/2000/svg" xmlns:xlink="http://www.w3.org/1999/xlink" x="0px" y="0px"
	 viewBox="0 0 28.4 20.7" style="enable-background:new 0 0 28.4 20.7;" xml:space="preserve">
<style type="text/css">
	.st0{fill:#A6FF42;}
</style>
<path id="Path_6528" class="st0" d="M27.8,15.9c-0.1,0.5-0.3,1-0.4,1.5c-0.6,1.6-1.9,2.7-3.5,3.1c-3.6,0.9-5.3-0.7-6.9-3
	c-0.4-0.6-0.7-1.2-1-1.8c-0.8-1.3-0.7-3,0.3-4.2c0.5-0.6,0.8-1.3,0.8-2.1c-0.5-2.5,1-4.4,2-6.3c0.5-0.9,1.7-1.5,2.7-2.1
	c0.5-0.2,1-0.1,1.4,0.2c0.3,0.4,0.5,0.9,0.3,1.4c-0.4,1.1-1.1,2-1.6,3C21.5,6,21.3,6.6,21,7.2c-0.2,0.9-0.1,0.9,1.1,1.1
	c0.7,0.1,1.5,0.2,2.2,0.2c2.3-0.1,4.5,3.2,4,5.4C28.2,14.6,28,15.2,27.8,15.9z"/>
<path id="Path_6529" class="st0" d="M6.4,0c1.2,1.3,1.1,2.5,0.3,3.4c-1.2,1.4-1.1,3.2-1.8,5C5.7,8.2,6.5,8.1,7.2,8
	C8,8.1,8.8,8.3,9.5,8.5c1.5,0.3,2.6,1.4,2.8,2.9c0.6,2.8,0.5,5.4-1.8,7.6c-0.7,0.8-1.7,1.3-2.8,1.4c-1.1-0.1-2.3,0.2-3.5-0.6
	c-1.9-1.2-3.4-3-4.2-5.1c-0.2-0.6-0.2-1.3,0-2c0.2-0.8,0.1-1.8,1-2.2c-0.7-0.7-0.1-1.5,0-2.2c0.1-0.9,0.5-1.7,0.6-2.6
	C2,3.3,3.7,2,5.4,0.6C5.8,0.4,6.1,0.2,6.4,0z"/>
</svg>
