<svg id="Group_6258" data-name="Group 6258" xmlns="http://www.w3.org/2000/svg" width="28.446" height="20.739" viewBox="0 0 28.446 20.739">
  <path id="Path_6528" data-name="Path 6528" d="M-65.626,146.337c-.149.5-.293,1.007-.446,1.509A4.783,4.783,0,0,1-69.56,150.9c-3.589.921-5.251-.729-6.935-3.017a10.113,10.113,0,0,1-1.007-1.837,3.629,3.629,0,0,1,.33-4.2,3.024,3.024,0,0,0,.807-2.09c-.5-2.527,1.014-4.386,2.015-6.344.478-.935,1.73-1.522,2.72-2.12a1.461,1.461,0,0,1,1.368.17,1.519,1.519,0,0,1,.339,1.363c-.436,1.054-1.081,2.02-1.619,3.034a9.379,9.379,0,0,0-.835,1.806c-.248.892-.143.9,1.095,1.074a13.324,13.324,0,0,0,2.207.163c2.266-.051,4.537,3.158,4.035,5.416C-65.192,145-65.428,145.666-65.626,146.337Z" transform="translate(93.416 -130.42)" fill="#fc4daf"/>
  <path id="Path_6529" data-name="Path 6529" d="M-100.818,129.726c1.178,1.286,1.135,2.472.293,3.445-1.226,1.415-1.061,3.225-1.791,5.024a11.038,11.038,0,0,1,2.341-.462,11.653,11.653,0,0,1,2.3.518,3.524,3.524,0,0,1,2.83,2.867c.582,2.8.466,5.393-1.772,7.639a3.849,3.849,0,0,1-2.806,1.369c-1.113-.145-2.273.237-3.481-.584a9.849,9.849,0,0,1-4.153-5.076,3.059,3.059,0,0,1-.005-1.97c.247-.781.06-1.782,1.039-2.223-.686-.745-.093-1.488.032-2.216.149-.863.516-1.7.582-2.562.188-2.475,1.917-3.817,3.634-5.186A9.641,9.641,0,0,1-100.818,129.726Z" transform="translate(107.221 -129.726)" fill="#fc4daf"/>
</svg>
