<svg id="Layer_1" data-name="Layer 1" xmlns="http://www.w3.org/2000/svg" viewBox="0 0 450.15 432.58"><defs><style>.cls-1{fill:#57f3f5;}</style></defs><title>marker-background-graphic-cyan</title><path class="cls-1" d="M102.8,381.47h0v0Z" transform="translate(-22.85 -44.85)"/><path class="cls-1" d="M119.07,398.14h0l0,0Z" transform="translate(-22.85 -44.85)"/><path class="cls-1" d="M120.92,400.72v0l-.06,0Z" transform="translate(-22.85 -44.85)"/><path class="cls-1" d="M120.7,399.81l0,0v0Z" transform="translate(-22.85 -44.85)"/><path class="cls-1" d="M88.93,364.7l-.07,0,0,0Z" transform="translate(-22.85 -44.85)"/><path class="cls-1" d="M101.22,380.77h0Z" transform="translate(-22.85 -44.85)"/><path class="cls-1" d="M45.15,272.27l.05,0s0,0,0,0Z" transform="translate(-22.85 -44.85)"/><path class="cls-1" d="M67.22,341.91h0l0,0Z" transform="translate(-22.85 -44.85)"/><path class="cls-1" d="M76.34,350.41h0l0,0Z" transform="translate(-22.85 -44.85)"/><path class="cls-1" d="M70.82,344.79h0Z" transform="translate(-22.85 -44.85)"/><polygon class="cls-1" points="47.76 299.74 47.76 299.73 47.75 299.74 47.76 299.74"/><path class="cls-1" d="M172.34,409.13h0v.07Z" transform="translate(-22.85 -44.85)"/><path class="cls-1" d="M196.42,441.47l-.06,0-.05.06Z" transform="translate(-22.85 -44.85)"/><path class="cls-1" d="M199,446.34v0l-.1.05Z" transform="translate(-22.85 -44.85)"/><path class="cls-1" d="M198.84,444.71l0,0v-.06Z" transform="translate(-22.85 -44.85)"/><path class="cls-1" d="M169.73,407.6a0,0,0,0,1,0,0h-.05Z" transform="translate(-22.85 -44.85)"/><path class="cls-1" d="M392.56,267.72l-.05.06h0Z" transform="translate(-22.85 -44.85)"/><path class="cls-1" d="M387.68,264.46h0Z" transform="translate(-22.85 -44.85)"/><path class="cls-1" d="M380,105.1h0l.06,0Z" transform="translate(-22.85 -44.85)"/><path class="cls-1" d="M376.53,100.05l-.06.09h0Z" transform="translate(-22.85 -44.85)"/><path class="cls-1" d="M424.15,168.64l0,0v0Z" transform="translate(-22.85 -44.85)"/><path class="cls-1" d="M459.67,213v0l.09,0Z" transform="translate(-22.85 -44.85)"/><path class="cls-1" d="M468.59,226.77c1.13-1,2.17-2.11,3.23-3.17,1.29-1.3,1.54-2.31.65-2.32-2.27,0-1.78-2.06-2.46-3.24-.85-1.48-1.29-3.32-4.75-2.56-.52.12-1.19.21-.78-.27,2.19-2.58-.47-1.11-1.46-1-.62.09-1.76.78-1.47-.07,1.16-1.44,2.67-3.14-.86-1.11-.64.36-.87.19-1,0a3.66,3.66,0,0,1-.75.33c-3.4.39-2.1-2.69-2.79-4.3-.15-.35.8-.82,1.25-.88a3.41,3.41,0,0,1,1.09.08c.31,0,.45.39,1.15-.24a1.65,1.65,0,0,0,.42-.91c.38-1.47-.63-2-1.22-2.79-.93-1.22-.15-4.18-5.32-1.46-.23.12-.53.11-.6,0-.71-.91-2.9-.41-4-1,1.1-.74,2.06-1.92,3.27-2.23.44-.12.67.25,1.29-.33.88-.82.09-.78,0-1.06-.25-.62-1.19-.41-2.48,0-2.32.72-3.82.7-3.53-1.27.19-1.26,1.28-3.34-.63-3.34-2.43,1.31-2-.12-1.87-.9.23-1.67-2.09-.74-3.32-.94s1-3.09-.89-3.11a9.13,9.13,0,0,1-1.17,0c-.44-.05-1.27,0-1.15-.29.74-2-1-.69-2.56.45-2.72,1.94-.48-.11-.55-.37-.33-1.21,1.55-3.86-.8-3.76-.16,0-.07-.27-.09-.42-.05-.34.21-1-.89-.37s-.81,1.16-1.26,1.77c0-.2,0-.51-.19-.46-2.24.47-.92-.3.64-1.3.62-.39,1.05-1.24,1.82-1.58,2.79-1.26,2.59-2.09,2.41-2.95l.84-.74c.26-.54.61-1.27,0-1.1-2.79.83-3.44-.59-5.81-.18-.35.35-1,.84-1,1-.32,1.61-1.82,2.09-3.27,2.65.76-1.5,1.54-3,2.29-4.5a2.53,2.53,0,0,1,1.13-1.26c.68-.3.16.44.23.67.13.42.56.55,1,.64-.16-.92,3.14-1.74,2.17-2.11-2.19-.85-2.77-3.44-8.33-.82l.07-.1c-.71,1-1.46,2-2.45,1.63-2.12-.86-1.89-3.54-3.86-4.53-.13-.07-.12-.62.56-1.13s.88-.31,1,0c.27.74,1.35.06,2.56-.9.24-.8.35-1.48-1.27-.72-2.38,1.12-3,0-5.35.93-.47.2-1.26,0-.77-.78,2.26-3.66,2.68-6.08-1.35-5.6-.26,0,0-.48-.25-.54-1.64-.5-1.11-2.59-2.29-3.43.65-.3,1.74-.81,1.7-.81-1.7-.1.15-2.34-.25-3.21-1.45-3.17-5.3-4.65-4.51-9.4,0-.16-.23-.16-.3-.28-1.92-3.16-5.93-4.88-4.46-10.41.12-.44-.22-.68-.5-.88-2.22-1.53-2.39-4.54-3.73-6.7-1.49-2.38-1.91-5.56-4.84-6.86l-.05,0a1.68,1.68,0,0,0-.2-2c-1.81-1.93-3.83-3.68-4.49-6.5a4.49,4.49,0,0,0-3.81-3.76l0,0c-.16-.61-.29-1.24-.5-1.82-.15-.43-.53-.47-1.75.29-.72.45-1.13,1.71-1.9,1.35-.38-.18-.54-.68.24-1.48,1.48-1.53,2.47-2.72,1.39-3.22s-3.12,1.57-4.6,2.17a.6.6,0,0,1-.29,0c-1.18.53-1.46.39-.44-.73l-.07.08a14.55,14.55,0,0,1,1.65-2.62c2-2.24.29-1.77-.84-1.57a7.63,7.63,0,0,0-2.83.8c-1.53.79-2.07.48-1-.92.79-2-.35-2.73-.39-4.11s-.49-2.31-1.84-2.44c-2.69-.28-2.64-2.52-3.18-4.32a2,2,0,0,0-2.2-1.63l0,0c-2.69.64-2.75.6-.12-1.64.78-.66,1.25-1.08,1.29-1.53s.08-.76-.22-.82c-.85-.16-1.26,1.11-1.37,1.07-.82-.34-1.41-.88-2.24-1.22s-1.77-.27,1-1.81c.94-.51.27-.79.23-1.12-2,1.44-2.58.14-5,1.88-2,1.48-2.15,1.31-2.31.11.67-.14,1.17.09,2.12-.72s.22-.79.05-1a13.49,13.49,0,0,1-1.87-2.56c-.54-1.45-2-.67-4.35.79,3.66-4.09,3.79-4.6,1.08-5.41-1.24-.37-2.4-.74-1.64-2.58.26-.61,0-.92-1-.6-1.2.38-1.19-.32-1.3-.91-.15-.77,0-1.77-1.15-1.82L350.28,69a4.69,4.69,0,0,1,1.77-1.62c-.57-.47,0-1.54.35-2.54s.4-1.83-1-1.6a1.1,1.1,0,0,1-.78.82c-.47.16-.35-.16,0-.57-1.76-.65-4.67-.43-2.82-3.77-1.95.33-1.68-1-1.95-2a9.38,9.38,0,0,0-1.91.83c.61-2.66-.85-3.57-4.43-2.67v0c-.09-1.71,1.53-4.39.33-5.46-.7-.62-2.84-.18-4.63,1.09-.74.52-1,1.61-2,1.69-.75.07-.43-.68-.1-1.47.71-1.73-.68-1.7-3.34.07-2.15,1.44-4.36,2.81-6.44,4.51-2.5,2-4.24,2.61-5.09,1.71s-1.9-2.17-2.93-3.19c-.37-.37-.18-1.34-1.34-.92-3.56,1.28-3.3-.4-3-2.28s-.41-2-3.7-.32c-1.58.79-3.39,1.89-3.87,1.09s-1.7-.67-1.57-1.76l.09,0c-1.4.14-2.43-.3-2.08-1.34.88-2.56-1.1-2.9-2.28-3.88-1.38-1.16-3.5-.38-6.46,2.67a36.13,36.13,0,0,1-6.75,5.2c-5.6,3.61-9.17,8-13.72,12a3.7,3.7,0,0,0-.95,1.37,11.46,11.46,0,0,1-3.44,4.19c-2.46-1.84-5-3.53-6.18-6.28-3.94-9.51-14-9.32-26.86-5.69h0c-3.54.37-7.51.2-10.35,4.45-1.91,2.85-2.17,8.07-1.29,11.47A10.17,10.17,0,0,0,216.39,71l.08,0-.6-.75-.06.08c-.26-.87-.24-2-.83-2.56-3-3-6.15-5.92-9.24-8.85l0,.07c-1.62-3.86-5.83-5.68-8.14-9-3.35-4.75-3.09-4.86-13.25,2.71A72.84,72.84,0,0,0,169.86,67c-2.2,2.91,1.06,3.36,1.7,5,.3.77-.3.94-1.29,1.75-4.6,3.8-9.18,7.65-13.56,11.6-5.7,5.15-8.56,9.22-6.28,12.75a31.23,31.23,0,0,0,4.18,5A74.6,74.6,0,0,0,142.27,115c-2.3,2.8.89,3.27,1.44,4.88.26.75-.34.91-1.35,1.69l-.3.24c-4.46-5.14-8.92-10.29-13.59-15.21-2.17-2.28-3.65-6.08-6.4-6.73-4.1-.95-6.38-4.26-9.6-6.24-4.43-2.73-3.83-2.62-7.41.36s-5.48,9.78-12.71,6.46c-.84-.38-2.48.33-3.28,1-5.29,4.74-11,9-15.39,14.67-1-2.14-2.59-2.62-5.29-1.25A41,41,0,0,0,59.33,121c-4.94,4.46-9.87,8.93-14.94,13.25C41,137.1,40.93,137,43,140c.35.5.76.95,1.09,1.46,3.54,5.51,9,9.58,12.11,15.41a13,13,0,0,0,3.36,4.1,67.8,67.8,0,0,1-10.84.06c-8-.73-15.39,5-23,7.16a4.17,4.17,0,0,0-2.87,4c.46,5,.62,10.2,1.34,14.85,1.52,9.83,8.9,15.89,21.59,16.27h-.12c3.54,2.08,5.23,5.36,3.09,10.08-2.75,6-2.2,10.77,1.63,13.64,3.35,2.51,6.51,4.79,6.3,9.57A4.89,4.89,0,0,0,58.63,241c-.43.5-.64,1-.31,1.52,3.29,5.34,6.12,11,9.89,16,3.5,4.64,6.84,9.4,11,13.65s6.69,10.39,10.12,15.55c2.92,4.4,7.35,7.88,9.57,12.6,3.28,7,8.21,12.75,12.57,18.94h.07c0,.18.11.34.16.51a46.86,46.86,0,0,1-6.83-8.41c-3.23-5.21-7.51-9.56-11.47-14.16-5.38-6.24-11-12.29-16.31-18.56-4.3-5-11.13-7.67-14.65-13.45-1.34-2.18-3.13-3-7.48.89-1,.84-2.24,1-2.79,2.59-.24.69-1.27,1.27-1.28.27V269a1.85,1.85,0,0,0-1.4,1.15c-1.57,3.11-2.91,2.74-4.24,2.17-.45,1.71-1.85,3.09-3.46,4.66-5.43,5.31-11.19,10.37-16.17,16.05-.59.67-1.52,1.37-1,2,2.3,2.79,4.39,5.79,6.93,8.37a86.22,86.22,0,0,0,7.3,7c2.72,2.18,4.65,5.42,7,8.1,2,2.29,4.78,4,6.44,6.49,2.45,3.72,5.7,6.65,8.68,9.85h0A10.67,10.67,0,0,0,66.32,340a1.48,1.48,0,0,0,.88,1.88c.8-.68.73-.12.85.16.49,1.18,2.41,1,2.56,2.51.28-.47.44-1.32,1.06-.75,0,.13.09.27.13.4v.07l0,0c-.05-.15-.09-.29-.13-.44-.28.32-.56.64-.83,1-.75,1.28,0,1.19.88,1l.23.32,0,0c1.46,1.42,1.43,4.25,4.34,4.32.34-.45.69-1.27,1-.53l0,0,.21.23.18.19h0c0,.12,0,.16.2.1l-.06.23c-.29.59-1.41,1-1.23,1.68.84,3.21,2.39,5.79,5.91,6.58l-.05.06v-.05c-1,1-.17.92,0,1.33.78,1.6,5.25-.91,4.46,2.39,0,0,.49-.14.76-.22l0,0c-1.93,2.61-1.06,3,1.16,2.32-.35-.21.07-.48.45-.75h0c1.81-.57.45,2,2,1.69l0,0,.21.21h0l-.21,1.41,0-.05c-.25,1.72-.66,3.54.44,4.46v0l2.77-1.21c-.09.46-.2.92-.3,1.38l0-.05,1.62,1c-2.6,2.73.09,2.08.52,2.88v0c.06,1.19.8,1.69,2.43.4,1.92-1.52.57.2.75.39h0l.22.23v0c1.55.62.7,3,1.51,4.12l.94-.22v0h-.06c-1.1,1.47.2.84.71.9a.93.93,0,0,1,.57-.92l.66.53h0l.42.42-.21.59,0-.06c.73.71,2.71.3,1.75,2.5-.19.43.56.26,1.12-.25l0,0-.06.08c-.19,2.21-1.45,5.23,2.2,4.51.51-.11,1.42-.28.73.86-1.65,2.73.51.65,1.23.39l.19.27c-.4.84,1,.59.24,1.65h0v0h0c-.34,1.51-.17,2.7.89,3.2,2.12,1,4.33,1.91,6.5,2.86.43-.65-.16-1.6,1.48-1.88-.5.75-1.09,1.37.09,1.35.61,0,2.92-.13.13,2.19.06.3.12.6.19.9l.46-.29-.3.54v-.05c-.2.83-.41,1.66-.61,2.5h0c.63-.09,1.19,0,.94.68-.87,2.43.8,1.85,2.59,1.18.33,0,.8-.43.8.24,0,1.89-.42,4.13,1.42,4.76l.35-.11.84-.5,0,.05.31-.37.24-.07c1.37-.82.35.94,1.17.72-.53.52-1.55.67-1.55,1.55,0,.4.28.49.83-.12l0,0c.22-.25.51-.69.65-.73.57-.16.2.26,0,.56l0-.05-.45.42.06,0c-.55,1.31.44,1.07,1.28.64.66-.32.31-.55.09-.7.94-.64.73.27,1.19.28v0l0,0c-1.47,1.07-1.34,1.69-.84,2.27.86,1,1.66,2,2.54,3a2.17,2.17,0,0,0,.91-.55c3.47-3.85,7.6-7.29,10.58-11.51,1.35-1.92-.08-3,2.36-5.2,3-2.66,5.22-5.74,8.64-8.43.93-.74,1.85-1.54,2.74-2.38l2.68-.81c-.31.79-.62,1.58-.94,2.37l.07-.08,2.59,2.07c-5.41,4.3-.44,3.67.08,5.16,0,0,0,0,0-.08-.24,2.1.93,3.13,4.2,1.17,3.86-2.31,1,.46,1.21.83h-.07l.33.45,0-.07c2.57,1.37.38,5.34,1.49,7.5l1.72-.2v.07s-.11,0-.1,0c-2.4,2.38.09,1.52,1,1.72a1.82,1.82,0,0,1,1.3-1.51l1,1.05-.09,0c.2.27.4.55.61.82l-.54,1,.07-.09c1.09,1.36,4.73,1,2.38,4.71-.45.72.92.56,2.08-.23l.09-.05-.13.14c-1,3.84-4.1,8.91,2.6,8.32.94-.08,2.6-.21,1,1.65-3.73,4.49.73,1.24,2.08.93.08.17.17.34.25.5-1,1.4,1.61,1.23-.05,2.94l0,0s0,0,0,0v0h0c-1.05,2.58-1.08,4.7.66,5.79,3.47,2.17,7.14,4.17,10.73,6.24.94-1.05.17-2.83,3.17-3-1.11,1.21-2.34,2.2-.23,2.39,1.08.1,5.22.33-.41,3.86,0,.54.05,1.08.07,1.62l.92-.43-.69.9,0-.09-1.81,4.26-.1,0c1.15,0,2.13.2,1.48,1.36-2.25,4.11.88,3.42,4.25,2.57.61,0,1.56-.61,1.37.58-.56,3.32-1.95,7.17,1.15,8.61l.64-.13,1.63-.7,0,.08.66-.6.44-.07c2.67-1.17.36,1.72,1.87,1.49-1.08.81-2.95.87-3.19,2.42-.11.7.35.91,1.5-.06l-.06.09c.47-.4,1.09-1.12,1.36-1.16,1.07-.17.27.49-.21,1l0-.08-.92.65.12,0c-1.36,2.2.47,2,2.09,1.38,1.26-.45.7-.93.36-1.22,1.85-.95,1.22.61,2,.71v.08l-.09-.08c-2.9,1.59-2.86,2.71-2.14,3.82,1.25,1.9,2.36,3.89,3.64,5.77a4.25,4.25,0,0,0,1.77-.8c7.3-6.1,15.62-11.35,22.14-18.18,3-3.11.75-5.33,5.71-8.68,6.07-4.09,11-9.07,17.8-13.15A102.06,102.06,0,0,0,280,423.24c4.93,6.54,10.47,12.69,14.45,19.93,1.75,3.17,4,4,7.16,3a31.45,31.45,0,0,0,7.3-3.68c1.64-1.06,2.64-1.26,3.38,1.34s-.32,6.3,2.74,8c3.45,1.91,5.22-1.92,7.92-2.64,7.88-2.13,13.71-7,18.92-12.8,2.31,4,4.62,8,7,12,1.32,2.25,4,2,9.23-2.19s10.81-8.36,16.33-12.39,9.62-7.5,6.49-9.95c-.69-.54,0-1.95,1.36-3.42v0c-2.56.46-3.09-.87-3.63-2.09-2.59-5.87-5-11.84-7.6-17.73-1.62-3.74-2.58-7.46,8.25-14.26a16.15,16.15,0,0,0,2.13-1.58c5,7.7,9.74,15.54,14.65,23.29,1.45,2.3,4.18,2,9.26-2.32s10.55-8.69,16-12.88,9.39-7.78,6.1-10.27c-.73-.55-.12-2,1.21-3.53v0c-2.59.49-3.19-.87-3.8-2.12-2.92-6-5.7-12.13-8.59-18.17-1.83-3.82-3-7.64,7.67-14.72,3.64-2.42,4.32-4.42,2.8-6.05-2.35-2.52-3.78-5.78-5.53-8.78-.41-.69-.82-1.51,1.11-3.06,9.87-8,4.44-10.57,3.71-13.61-1.23-5.05-6.25-7.72-9.67-11.39l-.08.05c.67-3.12-2.76-3-4-4.64,2.75-3.75-.62-3-2.3-3.56,2.57-3.09,0-3.15-.61-4.36l.22-.07-.13,0c-3.45.06-3.41-2.9-5.56-4v-.09c-2.44-2.22-5.56-4-7.12-6.83-1.3-2.39-5.57-2.74-3.8-7.29l0,.08c-2.7.64-2.37-.5-.36-2.62-1.67,0-3.59.38-4.38-.81-.55-.84-1.13-1.65-1.72-2.46l1.18,0c1.52-.31,3.26-.2,4.51-1a10.06,10.06,0,0,0,1.49-1.22c.12.22.24.43.35.66.39.77,1.08.62,3-.56,5.42-3.38,5.44-3.33,7-1.49.21.25.17.69.3,1,1.09,2.53,2.38,4.91,5.21,6.11.4.18.36.9,1.42.28,3.44-2,3.54-.79,3.68.47.12,1.05,1.05,1.89,2.85.75,4.26-2.68,4.68-1.3,5.66-.42s1.93,2.08,3,3c.29.25.43.78,2.11-.4a156.16,156.16,0,0,0,13.67-10.89c1.4-1.25,2.56-2.24,3.76-2,.78.16,1.8-.41,3.4-1.64,7.05-5.4,12.81-11.34,19.21-17,.84-.74,3.47-3.27,1.82-3.33-4-.16-3-3.82-3.79-6.23C466,229.7,466.84,228.36,468.59,226.77ZM449,201.72c.09-.08.19-.07,0,0Zm-13.27-22.25a.93.93,0,0,1,.27-.29c.77-.36.58.16.82.3C436.25,179.66,435.53,180.06,435.69,179.47ZM66.43,340.06h0l.25.05Zm22.15,21.25,0,0h.08Zm4.91,8.35a1.85,1.85,0,0,1,.33-.2c.21.29.39.6.58.9Zm2.86,6a2.25,2.25,0,0,1,1.2-1.19l0-.08v.05c0,.35.07.7.11,1.05C97,376,96.65,375.89,96.35,375.64Zm7.12,4.73.41-1,.26,0C103.92,379.7,103.7,380,103.47,380.37ZM409.93,291.2c0,.54,0,1.09-.05,1.63-.09-.47-.19-.94-.26-1.42A2.47,2.47,0,0,1,409.93,291.2Zm-6.12-6.6c.16.24.31.49.46.73l-.57.35C403.74,285.32,403.78,285,403.81,284.6Zm-8.23-164.73c.15,0,.19.08.25.17-.23.11-.52.28-.6.25S395.31,119.94,395.58,119.87Zm-8.26-12a2.28,2.28,0,0,1-1.33,1c-.08,0-.15-.1-.11-.14A3.87,3.87,0,0,1,387.32,107.83ZM368.81,87.68c.47,1.11-1,1.63-2.35,2.16A12.31,12.31,0,0,1,368.81,87.68Zm-2.4,2.22c.95.76,1.92,1.5,2.81,2.31.16.14.66.25-.2.91a1.2,1.2,0,0,1-.94.16C367.09,92.47,363.87,93.21,366.41,89.9Zm-6.32-8.19c.43,0,.25.4.09.78-.26-.09-.57-.13-.71-.32S359.87,81.71,360.09,81.71Zm-20.55-25.8c.09.06.21.1.18.21s-.37.39-.43.26S339.42,56.09,339.54,55.91Zm-110,23.17c-2.33,2.32-2.58,1.23-3.45.6A11.74,11.74,0,0,1,224.28,78,12.89,12.89,0,0,1,229.56,79.08ZM113.17,391.41l-.34-.12.5-.19Zm7.35,4.83-.18-.14.19.13Zm3.41,8.92-.12-.23s.12,0,.13,0S123.93,405.09,123.93,405.16Zm35.9-17.89.3-.31c.16.36.33.72.49,1.09Zm5.26,8.5c0,.62-.06,1.24-.1,1.85-1.42.88-2,.55-2.44.06a4.3,4.3,0,0,1,2.49-1.86l.09-.14Zm8.75,11.56c.35-.58.69-1.16,1-1.74.15,0,.46.1.45.11C174.84,406.24,174.34,406.78,173.84,407.33Zm14,21.22-.57-.28,1-.25Zm11.67,9.86-.28-.27.3.25Zm3.47,16.3-.14-.43c.08,0,.23,0,.22,0A1.93,1.93,0,0,1,203,454.71ZM412.23,158.62c-.1-.09.15-.31.35-.31s.12.12.14.22C412.53,158.58,412.29,158.67,412.23,158.62Zm19.83,27.92c-.27,0-.12-.31.14-.61l.23.39A4.19,4.19,0,0,1,432.06,186.54Zm29.41,27.61-.45,0C461.59,213.73,461.46,214,461.47,214.15Z" transform="translate(-22.85 -44.85)"/><path class="cls-1" d="M446.81,193.69h0l.08,0Z" transform="translate(-22.85 -44.85)"/><path class="cls-1" d="M437.8,178.69l0,0,0,.05Z" transform="translate(-22.85 -44.85)"/></svg>