<svg xmlns="http://www.w3.org/2000/svg" width="52.068" height="52.018" viewBox="0 0 52.068 52.018">
  <g id="Group_7218" data-name="Group 7218" transform="translate(61.973 17.347) rotate(-43)">
    <path id="Path_5859" data-name="Path 5859" d="M-25.728-3.328l.068-.152c-.3-.123-.3-.121-.516.234-.021.034-.065.071-.083.053a.448.448,0,0,0-.632,0c-.087.057-.193.009-.29.009-.106.191-.193.444-.375.361-.132.321-.336.158-.5.259a3.791,3.791,0,0,1-.589.274c-.029.012-.054.06-.083.064-.283.044-.568.076-.851.126a2.814,2.814,0,0,0-.4.118c-.132.043-.278-.111-.4.109-.023.041-.084,0-.126.013-.144.042-.269-.253-.419-.077s-.292.008-.436.1l-.049-.253h-.374l.048.134c-.131.284-.131.284-.239.064-.014-.027-.02-.081-.035-.088-.1-.051-.2.16-.3,0-.051.11-.1.218-.156.331a3.581,3.581,0,0,1-.446.145c-.154.03-.317-.053-.5.224.03-.21.044-.305.061-.426h-.38c.02.1.039.189.06.293-.058.164-.139-.171-.229.019-.042.089-.183-.024-.258.131-.01.02-.043,0-.063,0-.082.029-.136-.234-.251-.035-.059.1-.206.03-.313.033a.789.789,0,0,0-.292.005c-.574.241-1.159-.009-1.729.131a10.843,10.843,0,0,1-2.251.1c-.759.03-1.518,0-2.277.01-.233,0-.452-.171-.689-.131a3.2,3.2,0,0,1-.715,0c-.067,0-.133-.081-.2-.113a1.418,1.418,0,0,0-.3-.118c-.1-.02-.2.012-.292-.008a2.323,2.323,0,0,1-.3-.115c-.09-.033-.179.03-.274-.093-.066-.085-.187-.026-.284-.027-.215,0-.211-.026-.5-.233a4.69,4.69,0,0,0-.7-.368c-.147-.072-.3-.133-.444-.193a1.656,1.656,0,0,1-.448-.177c-.315-.242-.62-.521-.925-.8a5.085,5.085,0,0,1-.47-.512,1.269,1.269,0,0,1-.3-.525.618.618,0,0,0-.133-.256,4.806,4.806,0,0,1-.814-1.536,10.042,10.042,0,0,1-.411-1.542,6.592,6.592,0,0,1-.221-1.275c0-.049-.039-.092-.044-.144-.025-.282-.055-.566-.064-.851-.011-.339,0-.681,0-1.02a14.375,14.375,0,0,1,.212-2.181c0-.033.044-.062.042-.085a4.265,4.265,0,0,1,.167-1.136c.059-.351.152-.684.23-1.024a18.473,18.473,0,0,1,.754-2.485,4.13,4.13,0,0,1,.375-1.152c.123-.395.319-.712.449-1.1a15.515,15.515,0,0,1,.781-1.688,8.313,8.313,0,0,1,.634-1.24c.121-.175.173-.444.314-.585a4.028,4.028,0,0,0,.339-.526c.1-.149.144-.387.267-.516s.2-.336.318-.466a3.054,3.054,0,0,0,.314-.471,10.091,10.091,0,0,1,.688-1.007c.187-.234.377-.465.551-.732a6.925,6.925,0,0,1,.586-.735,15.86,15.86,0,0,1,1.049-1.257c.288-.27.555-.62.834-.923.147-.159.3-.3.453-.441.182-.163.353-.36.531-.532.213-.2.438-.369.657-.551.152.163.086-.261.2-.25a.511.511,0,0,0,.3-.115,2.176,2.176,0,0,0,.24-.234c.089-.086.178-.173.27-.246s.206-.146.31-.214.2-.049.3-.118a3.367,3.367,0,0,1,.368-.234,1.953,1.953,0,0,0,.384-.183c.095-.075.2-.009.266-.112s.15.053.226-.084c.056-.1.171-.092.259-.131.01,0,.024.007.032,0a.919.919,0,0,1,.759-.247c.2-.005.288.022.306.338a4.9,4.9,0,0,0,.074.549c.055.325.185.448.32.254.083-.119.185-.109.25-.189a1.732,1.732,0,0,1,.421-.307,2.63,2.63,0,0,1,.427-.267c.037-.018.09.07.156.128l.172-.292a4.471,4.471,0,0,0,.7-.366.3.3,0,0,1,.21-.075,1.065,1.065,0,0,0,.606-.2,2.867,2.867,0,0,1,.486-.143,3.8,3.8,0,0,1,.914-.134.243.243,0,0,0,.2-.143c.041-.067.137-.132.166-.092.221.3.417-.036.622-.059.017,0,.043-.072.047-.067a.257.257,0,0,0,.362.1c.125-.08.225-.177.345,0,.016.024.07-.046.108-.058.072-.021.174-.1.212-.035.182.285.425-.075.6.217.148-.313.29.15.437.012.166.183.332.136.511.057.1-.043.212.061.319.059a1.423,1.423,0,0,1,.955.241c.037.028.086,0,.129,0,.219.038.438.078.656.122.029.005.057.038.082.067.19.211.41.207.619.282.132.048.252.021.382.2s.341.206.517.283c.227.1.474.1.645.46.066.142.1-.152.182-.034a1.38,1.38,0,0,0,.726.514c.091.033-.018.379.117.188.078-.111.11.052.159.062.091.019.12.206.18.215.38.057.651.587,1,.762a.294.294,0,0,1,.146.187c.042.215.142.29.229.276.163-.025.256.237.4.263.166.387.443.465.64.79.187.31.432.5.627.817a3.06,3.06,0,0,0,.431.54,3.838,3.838,0,0,1,.339.5c.207.3.364.684.57.985a7.2,7.2,0,0,1,.478,1.006c.046.1.076.229.127.321a9.292,9.292,0,0,1,.722,1.851,13.783,13.783,0,0,1,.474,2.04c.053.4.126.788.173,1.188a10.153,10.153,0,0,1,.132,1.7,4.244,4.244,0,0,1,.064,1.152,2.344,2.344,0,0,1-.061.733c-.032.113.076.222.005.389a1.5,1.5,0,0,0-.006.469,10.473,10.473,0,0,1-.266,2.019A17.55,17.55,0,0,1-15.5-12.09a1.109,1.109,0,0,1-.216.386c-.082.081-.113.346-.2.416-.1.086-.142.268-.237.361a2.662,2.662,0,0,0-.258.452c-.084.138-.136.371-.286.325-.02-.006-.053.059-.072.1a1.768,1.768,0,0,1-.539.643,3.742,3.742,0,0,0-.408.5c-.193.257-.381.526-.572.787-.139.19-.277.386-.415.577-.117.161-.283.144-.368.407-.072.223-.218.271-.334.387-.231.229-.5.283-.727.536-.055.062-.124.11-.187.178a.87.87,0,0,1-.513.322,1.092,1.092,0,0,0-.77.485,1.148,1.148,0,0,1-.272.23,9.058,9.058,0,0,1-1.028.64.68.68,0,0,1-.208.081c-.063.012-.146-.024-.185.037-.164.257-.355.2-.542.2a.625.625,0,0,0-.333.108c-.113.071-.227.173-.362.146-.083-.016-.173.082-.26.13-.3.165-.6.4-.942.32m-11.5-27.005c-.094,0-.178-.044-.238.007-.463.4-.95.7-1.4,1.14-.117.113-.253.169-.337.381-.31.027-.492.6-.8.636a11.106,11.106,0,0,1-.878,1.017,5.754,5.754,0,0,1-.573.639c-.358.37-.674.844-1.02,1.241s-.69.906-1.031,1.371c-.4.542-.751,1.171-1.125,1.756-.233.366-.443.788-.69,1.119-.079.106-.1.255-.173.35a1.309,1.309,0,0,0-.213.314c-.064.172-.19.227-.229.4-.053.234-.193.255-.257.453a9.3,9.3,0,0,1-.756,1.646,3.651,3.651,0,0,0-.176.4c-.18.456-.325.958-.5,1.414-.248.647-.452,1.338-.669,2.016-.061.188-.072.432-.136.614a10.5,10.5,0,0,0-.255,1.188,14.234,14.234,0,0,1-.31,1.625.316.316,0,0,0-.008.155c.113.146.026.266-.01.392a1.8,1.8,0,0,0-.068.551,9.422,9.422,0,0,1,0,1.078,4.313,4.313,0,0,0,.144,1.04,1.063,1.063,0,0,0,.182.4c.116.194.24.373.363.554.089.131.184.248.271.385s.218.181.323.316a1.635,1.635,0,0,0,.634.485,2.52,2.52,0,0,1,.312.212c.114.074.242.053.352.172.043.047.091.11.136.109.252-.005.474.225.718.3.268.082.535.219.806.31.068.023.133.1.2.112.085.021.19-.051.256.018.111.116.221.089.334.111s.22.1.331.112c.337.048.682-.1,1.013.124a11.24,11.24,0,0,1,1.632.124c1.019-.014,2.038,0,3.057-.009.2,0,.395.059.6-.1a.253.253,0,0,1,.338.052c.078.075.211-.055.319-.063.045,0,.109.129.132.1.065-.077.166-.063.2-.123.088-.168.161.1.209,0,.083-.167.181-.1.271-.1.391-.008.781,0,1.171-.005a.819.819,0,0,0,.334-.094.963.963,0,0,1,.588-.153c.2.041.415-.035.617.022s.377-.226.566-.016c.01.012.035-.029.054-.038.084-.039.15-.266.254-.079a.415.415,0,0,1,.331-.124,1.321,1.321,0,0,0,.454-.006c.084-.022.156-.2.241-.217s.193.144.261.093c.219-.163.44-.082.659-.105s.447.091.634-.225c.012-.022.04-.014.061-.015.141-.008.286.042.42-.084.141.172.264-.094.411-.055a.667.667,0,0,0,.486-.129,1.085,1.085,0,0,1,.375-.21,1.647,1.647,0,0,0,.4-.105,3.381,3.381,0,0,1,.784-.138c.043-.006.1.03.128-.007A.676.676,0,0,1-26.29-5.7c.155-.044.316.011.436-.249.018-.04.083-.006.127-.005a1.717,1.717,0,0,0,.981-.411.526.526,0,0,1,.147-.069c.132-.043.277-.032.392-.137a.475.475,0,0,1,.27-.107A2.053,2.053,0,0,0-23.51-6.8c.076-.033.142-.136.215-.2s.132-.158.193-.144c.2.044.361-.114.533-.246a3.243,3.243,0,0,1,.4-.244,1.322,1.322,0,0,0,.354-.219.984.984,0,0,0,.209-.225c.1-.167.136.183.225.082.1-.118.248-.069.33-.268.072-.176.161-.252.278-.213.066-.278.314.081.343-.33.15.074.211-.292.329-.253.1.031.153-.145.253-.077.039.026.121-.138.176-.23.222-.374.537-.441.77-.783.018-.026.084.057.128.09.056-.23.106-.473.281-.46.018,0,.041-.019.055-.043.091-.157.17-.308.313-.359.109-.039.2-.268.3-.4a1.236,1.236,0,0,1,.16-.156l.345-.32c.024-.341.223-.388.315-.631.07-.186.247-.234.317-.42a3.469,3.469,0,0,1,.309-.524,3.446,3.446,0,0,1,.588-.99.207.207,0,0,0,.02-.078c-.106-.112.006-.2.02-.27a1.859,1.859,0,0,1,.129-.321,2.32,2.32,0,0,0,.182-.519,4.812,4.812,0,0,1,.133-.561c.084-.335.146-.692.2-1.049.056-.381.1-.77.129-1.161a3,3,0,0,0-.055-.794c-.07-.349-.086-.734-.14-1.1-.026-.177-.111-.33-.122-.5a3.982,3.982,0,0,0-.506-1.717.7.7,0,0,1-.083-.177c-.088-.378-.156-.781-.392-.951a2.205,2.205,0,0,0-.352-.748c-.126-.231-.22-.541-.407-.643-.028-.256-.178-.281-.251-.457a.937.937,0,0,0-.371-.491,1.031,1.031,0,0,1-.275-.359,5.562,5.562,0,0,0-.712-1.047c-.1-.136-.206-.256-.3-.407a2,2,0,0,0-.366-.344c-.054-.052-.1-.124-.154-.185-.144-.171-.256-.422-.459-.434-.105-.006-.2-.266-.312-.33a2.873,2.873,0,0,1-.606-.489.91.91,0,0,0-.168-.121c-.122-.081-.255-.255-.366-.219-.18.057-.267-.2-.4-.271-.221-.121-.414-.411-.661-.387-.007,0-.014-.034-.023-.04a.622.622,0,0,1-.272-.246c-.081-.141-.224.049-.328-.129-.065-.112-.173-.048-.265-.11-.163-.11-.313-.347-.466-.374-.3-.053-.583-.29-.888-.267a.226.226,0,0,1-.157-.024.811.811,0,0,0-.635-.21c-.093.019-.165-.045-.232-.129a.259.259,0,0,0-.267-.115c-.418.085-.825-.165-1.242-.128-.055.005-.112-.105-.168-.105s-.11.089-.168.107-.124.022-.152-.031c-.066-.127-.14-.081-.211-.082-.282-.005-.564.01-.846-.005s-.54.214-.819.124c-.011,0-.025-.009-.032,0-.131.187-.284.115-.429.115s-.283.111-.426.15a2.711,2.711,0,0,0-.526.108,1.617,1.617,0,0,1-.761.228.146.146,0,0,0-.121.037c-.242.261-.533.184-.785.421-.115.108-.276.042-.41.2-.115.137-.266.121-.4.246a1.678,1.678,0,0,1-.559.387,2.277,2.277,0,0,0-.761.393,1.874,1.874,0,0,0-.561.55,1.407,1.407,0,0,1-.312.343c-.136.121-.3.142-.4.38-.02.044-.089.065-.117.036-.08-.081-.115-.1-.156.1a.377.377,0,0,1-.2.252c-.3.107-.539.5-.837.621a.23.23,0,0,0-.136.113c-.137.3-.379.336-.5.674-.009.027-.036.053-.052.049-.18-.047-.3.2-.456.292a1.542,1.542,0,0,1-.315.184c-.1.03-.094-.1-.058-.221l.1.108a3.8,3.8,0,0,1,.025-.555.7.7,0,0,1,.2-.38.18.18,0,0,0,.045-.084c.026-.1-.053-.28.084-.314.06-.015.06-.267.163-.257,0-.169.086-.2.136-.29-.1-.155.042-.244.029-.376.106.019.1-.248.162-.254.129-.014.063-.282.151-.326a.3.3,0,0,0,.156-.265l.152.143c-.028-.44.172-.576.281-.882" fill="#fc4daf" stroke="#fc4daf" stroke-width="2"/>
  </g>
</svg>
