<svg xmlns="http://www.w3.org/2000/svg" width="28.803" height="20.688" viewBox="0 0 28.803 20.688">
  <g id="Group_6912" data-name="Group 6912" transform="matrix(-1, 0.017, -0.017, -1, 28.803, 20.467)">
    <path id="Path_6528" data-name="Path 6528" d="M12.385,15.142c-.149.5-.293,1.007-.446,1.509A4.783,4.783,0,0,1,8.45,19.7c-3.589.921-5.251-.729-6.935-3.017A10.112,10.112,0,0,1,.509,14.851a3.629,3.629,0,0,1,.33-4.2,3.024,3.024,0,0,0,.807-2.09C1.146,6.039,2.659,4.18,3.66,2.222,4.138,1.286,5.39.7,6.381.1a1.46,1.46,0,0,1,1.368.17,1.519,1.519,0,0,1,.339,1.363c-.436,1.054-1.081,2.02-1.619,3.034a9.379,9.379,0,0,0-.835,1.806c-.248.892-.143.9,1.095,1.074a13.324,13.324,0,0,0,2.207.163c2.266-.051,4.537,3.159,4.035,5.416C12.819,13.81,12.582,14.472,12.385,15.142Z" transform="translate(15.405 0.775)" fill="#fff"/>
    <path id="Path_6529" data-name="Path 6529" d="M6.4,0C7.58,1.286,7.538,2.472,6.7,3.445,5.469,4.86,5.634,6.67,4.9,8.469a11.039,11.039,0,0,1,2.341-.462,11.653,11.653,0,0,1,2.3.518,3.524,3.524,0,0,1,2.83,2.867c.582,2.8.466,5.393-1.772,7.639A3.849,3.849,0,0,1,7.8,20.4c-1.113-.145-2.273.237-3.481-.584A9.849,9.849,0,0,1,.165,14.739,3.059,3.059,0,0,1,.16,12.77c.247-.781.06-1.782,1.039-2.223-.686-.745-.093-1.488.032-2.216.149-.863.516-1.7.582-2.562C2,3.294,3.731,1.952,5.447.583A9.638,9.638,0,0,1,6.4,0Z" transform="translate(0 0)" fill="#fff"/>
  </g>
</svg>
