<svg xmlns="http://www.w3.org/2000/svg" width="215" height="53" viewBox="0 0 215 53">
  <path id="Union_12" data-name="Union 12" d="M-2105.192-1499.51a5.222,5.222,0,0,0-.312-.781c.549-1.414.522-1.351-.193-2.2a4.141,4.141,0,0,1-.9-3.042,4.692,4.692,0,0,0-.265-2.187,4.154,4.154,0,0,1-.322-1.192c-.121-1.71-.182-3.433-.294-5.148-.058-.855-.194-1.693-.27-2.546a6.366,6.366,0,0,1,.008-1.087c.086-.979-.151-1.635-.735-1.732a9.638,9.638,0,0,0-2.09-.142c-1.733.092,1.04.449-.687.7-.933.132-1.273-1-1.57-1.908a15.135,15.135,0,0,0-1.255-2.69,8.9,8.9,0,0,1-.844-3.6c-.112-1.578-.3-3.136-.433-4.709-.22-2.526-.5-5.044-.618-7.587-.131-2.718.291-3.306,1.929-3.259a2.8,2.8,0,0,0,.607-.067,3.084,3.084,0,0,1,.563-.067,12.861,12.861,0,0,1,1.381.132,3.748,3.748,0,0,0,.679.077c.594-.045,1.188-.122,1.782-.187.258-.027.515-.058.772-.09.132-.018.287-.13.394-.055.006,0,.012,0,.018.009a4.235,4.235,0,0,1,.948-1.678c.88-.952.914-.885.229-2.413a5.466,5.466,0,0,0,.384-.863c.357-1.469,1.145-1.753,2.076-1.681,1.3.1,2.553.863,3.882.5a.12.12,0,0,1,.121.027c.476.566.981.442,1.51.16a1.084,1.084,0,0,1,.587-.035c1.875.112,3.74.855,5.631.095.22-.088.487.062.73.12a7.894,7.894,0,0,0,1.195.284,28.363,28.363,0,0,0,3.152.137c2.414-.085,4.827-.271,7.241-.356a3.691,3.691,0,0,1,.911.124,2.442,2.442,0,0,0,1.272.062c1.4-.451,2.778-.125,4.165-.109.636.007,1.272-.011,1.908-.029.874-.025,1.748-.05,2.626-.009.71.033,1.422.017,2.134,0a17.652,17.652,0,0,1,3.754.184,6.746,6.746,0,0,0,1.944-.209,2.741,2.741,0,0,1,1.063-.05,2.025,2.025,0,0,0,1.923-.1,1.513,1.513,0,0,1,.972-.2c1.956.1,3.908.459,5.855-.189a.794.794,0,0,1,.491-.058,3.837,3.837,0,0,0,.766.182,1.7,1.7,0,0,1,1.957-1.279c1.3.1,2.552.863,3.882.5a.119.119,0,0,1,.121.027,1.012,1.012,0,0,0,.615.387l.488-.05a2.5,2.5,0,0,0,.406-.178,1.078,1.078,0,0,1,.587-.034c.218.013.436.034.654.061.2-.012.4-.02.6-.023,1.373-.018,2.745-.14,4.13-.05a10.824,10.824,0,0,0,2.252-.168,10.564,10.564,0,0,1,2.378-.161,20.951,20.951,0,0,0,2.115.033c.32-.005.64-.012.959-.01.179,0,.359,0,.539,0,.356.006.712.012,1.067-.012,1.064-.07,2.129-.207,3.194-.259a4.6,4.6,0,0,1,1.966.122,1.482,1.482,0,0,1,.689.818,16.123,16.123,0,0,1,3.752,0c.638.007,1.275-.011,1.913-.029.872-.025,1.745-.05,2.621-.009.71.033,1.422.017,2.134,0a17.66,17.66,0,0,1,3.754.184,6.807,6.807,0,0,0,1.944-.209,2.742,2.742,0,0,1,1.063-.05,2.025,2.025,0,0,0,1.923-.1,1.512,1.512,0,0,1,.972-.2c1.956.1,3.908.459,5.855-.189a.791.791,0,0,1,.491-.058,6.24,6.24,0,0,0,3.1.048,9.475,9.475,0,0,1,2.042-.163q.216.014.432.018a1.907,1.907,0,0,1,1.23-.247,5.4,5.4,0,0,1,.8.131c.824-.084,1.649-.186,2.473-.2,1.373-.018,2.745-.14,4.13-.05a10.838,10.838,0,0,0,2.252-.168,10.557,10.557,0,0,1,2.378-.161,20.955,20.955,0,0,0,2.115.033c.32-.005.639-.011.959-.01.18,0,.359,0,.539,0,.356.006.712.012,1.067-.012,1.064-.07,2.128-.207,3.194-.259a4.6,4.6,0,0,1,1.967.122c.428.179.729.762.941,1.547q.617-.029,1.234-.051a3.7,3.7,0,0,1,.912.124,2.447,2.447,0,0,0,1.272.063c1.4-.451,2.778-.125,4.164-.11.638.007,1.275-.011,1.913-.029.872-.025,1.745-.05,2.621-.009.71.033,1.422.017,2.134,0a17.658,17.658,0,0,1,3.754.184,6.807,6.807,0,0,0,1.944-.209,2.741,2.741,0,0,1,1.063-.05,2.025,2.025,0,0,0,1.923-.1,1.513,1.513,0,0,1,.973-.2c1.956.1,3.908.459,5.855-.189a.79.79,0,0,1,.491-.058,6.241,6.241,0,0,0,3.1.048,9.475,9.475,0,0,1,2.042-.163c1.637.107,3.287-.272,4.934-.3,1.373-.018,2.745-.14,4.13-.05a10.839,10.839,0,0,0,2.252-.168,10.556,10.556,0,0,1,2.378-.161,20.954,20.954,0,0,0,2.115.033c.32-.005.639-.011.959-.01.18,0,.359,0,.539,0,.356.006.712.012,1.067-.012,1.064-.07,2.129-.207,3.194-.259a4.6,4.6,0,0,1,1.967.122c1.456.608,1.447,5.9,1.412,7.854a1.381,1.381,0,0,1,.29.022,1.99,1.99,0,0,0,2.009-.76,6.916,6.916,0,0,1,1.487,4.642,7.66,7.66,0,0,0,.332,2.227,9.012,9.012,0,0,1,0,4.415,21.16,21.16,0,0,0-.148,2.865c-.077,1.027.125,2,.135,2.994.008.788.174,5.283.161,5.548a9.164,9.164,0,0,1-.3,1.9c-.084.312-.36.731-.517.7a3.655,3.655,0,0,0-1.259.02,2.5,2.5,0,0,1-2.072-.357c-.637-.491-2.334.586-2.408,1.291-.2,1.937.3,3.73.3,5.618,0,1.077.167,2.159.162,3.238a5.532,5.532,0,0,1-.366,1.486,3.316,3.316,0,0,0,.086,2.566c1.134,2.523.563,3.114-.83,3.809a3.3,3.3,0,0,1-1.591.152c-.864-.025-1.725-.13-2.587-.172-.433-.02-9.677,1.1-10.111,1.109-.831.022-1.663-.015-2.489.085a7.542,7.542,0,0,1-1.931-.1,7.7,7.7,0,0,0-1.819-.106,19.165,19.165,0,0,1-2.238.048c-.369-.006-.738-.013-1.107-.008a16.618,16.618,0,0,1-1.689-.1,11.927,11.927,0,0,0-2.306-.069,6.8,6.8,0,0,1-1.657-.106,4.491,4.491,0,0,0-2.509.109.557.557,0,0,1-.4-.042c-1.579-.553-3.16-.182-4.742-.05a1.1,1.1,0,0,1-.789-.159,1.471,1.471,0,0,0-1.558-.057,2.016,2.016,0,0,1-.86-.022,4.806,4.806,0,0,0-1.575-.153,12.733,12.733,0,0,1-3.046.246c-.575,0-1.149,0-1.722.045-.71.054-1.416.05-2.122.046-.517,0-1.033-.006-1.549.014a9.025,9.025,0,0,1-3.372-.013,1.761,1.761,0,0,0-1.028.082,2.7,2.7,0,0,1-.74.132c-1.955-.024-3.909-.146-5.864-.174a20.569,20.569,0,0,0-2.553.192,6.082,6.082,0,0,0-.966.284c-.2.058-.413.2-.592.125-1.532-.656-3.042.063-4.56.2a.787.787,0,0,1-.475-.02c-.43-.247-.838-.349-1.222.18a.093.093,0,0,1-.1.025c-1.077-.307-6.6.146-7.651.264a1.308,1.308,0,0,1-1.535-.977c-.531.022-1.061.013-1.589,0-.369-.006-.738-.013-1.107-.008a16.618,16.618,0,0,1-1.689-.1,11.924,11.924,0,0,0-2.306-.069,6.8,6.8,0,0,1-1.657-.106,4.491,4.491,0,0,0-2.509.109.557.557,0,0,1-.4-.042c-1.579-.553-3.16-.182-4.742-.05a1.1,1.1,0,0,1-.789-.159,1.471,1.471,0,0,0-1.558-.057,2.016,2.016,0,0,1-.86-.022,4.807,4.807,0,0,0-1.575-.153,12.733,12.733,0,0,1-3.046.246c-.575,0-1.149,0-1.722.045-.71.054-1.417.05-2.123.046-.517,0-1.033-.006-1.55.014a9.023,9.023,0,0,1-3.372-.013,1.762,1.762,0,0,0-1.028.082,2.7,2.7,0,0,1-.74.132q-.363,0-.726-.013a6.306,6.306,0,0,1-1.121.006c-.493-.014-.985-.054-1.477-.094-.5-.019-1-.037-1.5-.051-.826.076-2.8.3-4.76.527a.525.525,0,0,1-.394.051l-.01,0c-2.244.259-4.358.5-4.56.509-.831.022-1.663-.015-2.489.085a7.539,7.539,0,0,1-1.93-.1,11.452,11.452,0,0,0-1.261-.126c-1.627.09-3.237.23-3.756.288a1.333,1.333,0,0,1-1.076-.263c-.254-.019-.509-.042-.763-.066a11.932,11.932,0,0,0-2.305-.068,6.8,6.8,0,0,1-1.657-.106,4.486,4.486,0,0,0-2.51.109.558.558,0,0,1-.4-.043c-1.579-.553-3.16-.182-4.742-.049a1.1,1.1,0,0,1-.789-.16,1.471,1.471,0,0,0-1.558-.057,2.018,2.018,0,0,1-.86-.022,4.814,4.814,0,0,0-1.575-.153,29.15,29.15,0,0,1-4.768.292c-.709.054-1.414.05-2.119.046-.518,0-1.036-.006-1.553.014a9.026,9.026,0,0,1-3.372-.013,1.763,1.763,0,0,0-1.029.083,2.729,2.729,0,0,1-.74.132c-1.955-.025-3.909-.147-5.864-.175a20.548,20.548,0,0,0-2.553.192,6.091,6.091,0,0,0-.966.284c-.2.058-.413.2-.592.125-1.532-.656-3.042.062-4.56.2a.788.788,0,0,1-.476-.02c-.429-.247-.838-.349-1.222.18a.093.093,0,0,1-.1.025c-1.077-.307-6.6.147-7.651.264a2.253,2.253,0,0,1-.253.015C-2104.4-1498-2104.932-1498.325-2105.192-1499.51Zm188.566-47.862a1.155,1.155,0,0,1-.386.16c-1.545.146-3.089.281-4.634.431a1.623,1.623,0,0,0-.423.167c0,.082.005.162.008.239a64.574,64.574,0,0,1,14.947-.01c-.172-.326-.24-.583-.338-.619-.408-.146-.824-.229-1.237-.336-.438-.11-.873-.237-1.313-.319a1.3,1.3,0,0,0-.655.027c-.414.142-.813.257-1.192-.132-.1-.1-.266-.155-.361-.057a1.1,1.1,0,0,1-1.158.229c-.546-.1-1.083-.354-1.65.033a.53.53,0,0,1-.5.024.927.927,0,0,0-.354-.069A1.642,1.642,0,0,0-1916.626-1547.373Z" transform="translate(2116 1551)" fill="#fc4daf"/>
</svg>
