<svg xmlns="http://www.w3.org/2000/svg" width="242.914" height="26.207" viewBox="0 0 242.914 26.207">
  <g id="Group_7201" data-name="Group 7201" transform="translate(-12.293) rotate(3)">
    <path id="Path_5205" data-name="Path 5205" d="M1.013,3.259c1.922.015,3.843-.075,5.764-.123.781-.019,1.564-.052,2.344-.083q5.165-.2,10.331-.408Q25.627,2.4,31.8,2.126l17.641-.781c1.348-.06,2.7-.1,4.045-.15Q58.63,1,63.769.809L74.05.426c1.34-.05,2.683-.115,4.024-.15q8.2-.2,16.4-.41,5.041-.124,10.085-.252c1.315-.033,2.634-.083,3.951-.1q7.927-.092,15.854-.191,7.823-.092,15.646-.187c1.377-.015,2.756-.008,4.132-.012q5.106-.014,10.214-.033,7.942-.023,15.884-.048c1.731-.006,3.463.01,5.194.013l10.875.031c.3,0,.6,0,.9,0q-12.24.13-24.481.271l-10.224.121c-1.469.017-2.941.021-4.411.052q-7.4.153-14.791.318l-17.1.368c-.957.019-1.916.064-2.871.1l-9.1.335Q95,1,85.772,1.335c-.911.033-1.821.085-2.73.135q-4.51.245-9.019.495-8.078.442-16.155.885c-1.485.083-2.968.2-4.45.3l-10.344.691c-4.383.294-8.768.577-13.149.881q-9.149.632-18.295,1.268-2.194.153-4.388.3C4.619,6.474,2,6.738-.612,6.967c-.276.023-.513.165-.513.406s.233.4.513.408l2.869.1a1.234,1.234,0,0,0-.187.635A1.724,1.724,0,0,0,3.945,10c7.478-.369,14.952-.772,22.437-1.055q9.744-.369,19.491-.737L67.422,7.4l6.784-.258c.653-.025,1.306-.058,1.959-.071q17.357-.367,34.714-.724l18.553-.387q3.353-.069,6.7-.114L171.641,5.4l15.214-.192c4.329-.056,8.66-.079,12.988-.208l10.728-.323c1.784-.052,3.572-.087,5.355-.175q6.088-.306,12.178-.625l-.01.012a1.113,1.113,0,0,0-.17,1.035,1.447,1.447,0,0,0,.775.8,1.99,1.99,0,0,0,1.3.135q1.328-.419,2.644-.858a.5.5,0,0,1-.054.019l.194-.065.227-.075-.083.027c.469-.156.937-.314,1.4-.47.49-.164.981-.327,1.469-.5.531-.185,1.039-.408,1.55-.625a1.467,1.467,0,0,0,.934-1.293,1.26,1.26,0,0,0-.258-.754A1.818,1.818,0,0,0,236.9.58c-.453-.062-.905-.11-1.362-.156-.1-.01-.2-.013-.3-.013-.308,0-.629.033-.924.05-.688.038-1.373.119-2.063.16q-.843.049-1.687.1-2.271.133-4.541.262c-.391.023-.783.04-1.174.062a1.1,1.1,0,0,0,.3-.441,1.026,1.026,0,0,0,.12-.416c.016-.1.035-.2.052-.306A.963.963,0,0,0,225.24-.5c.038-.013.079-.027.118-.042a1.75,1.75,0,0,0,.681-.541,1.275,1.275,0,0,0,.26-.764,1.264,1.264,0,0,0-.26-.76l-.3-.308A2.045,2.045,0,0,0,224.9-3.3a6.166,6.166,0,0,0-1.814-.221c-.505,0-1.014.029-1.514.033l-2.184.017c-1.029.01-2.059.021-3.088.025l-8.161.033c-2.559.012-5.119.01-7.678.01q-3.488-.006-6.977,0c-9.272.033-18.543.044-27.815.119q-10.429.081-20.857.165-4.662.04-9.324.115l-20.9.352q-2.981.052-5.961.1c-1.152.021-2.3.067-3.456.1l-20.656.623q-3.152.1-6.305.191c-1.178.035-2.356.1-3.534.146q-10.258.439-20.518.876-5.3.225-10.588.5Q34.512.335,25.448.79c-5.234.262-10.471.487-15.706.731l-2.489.115c-1.34.062-2.683.1-4.024.152-1.19.042-2.386.067-3.58.042a.81.81,0,0,0-.765-.423c-.77.048-1.538.115-2.306.181a.851.851,0,0,0-.8.485.664.664,0,0,0,.581.814c.334.064.666.129,1,.191a9.786,9.786,0,0,0,1.008.1c.879.062,1.763.077,2.646.083M212.562.954l3.372,0a1.482,1.482,0,0,0,.454.523c-.436.025-.87.046-1.305.06q-1.23.038-2.457.073-5.366.162-10.728.319c-1.638.05-3.275.121-4.912.14l-7.675.1q-8.769.11-17.538.219-17.023.219-34.045.429c-8.128.1-16.252.3-24.376.473q-18.364.39-36.726.774c-2.454.052-4.91.177-7.36.269L48.42,5.126,27.955,5.9l-1.895.071q2.758-.176,5.516-.344,9.63-.586,19.261-1.17,3.364-.2,6.727-.408c1.157-.069,2.315-.115,3.473-.171l20.03-.964c1.3-.064,2.61-.146,3.917-.187q2.821-.087,5.643-.175l20.653-.635,4.543-.14c.4-.012.8-.013,1.2-.019l3.191-.052,20.695-.335c3.179-.052,6.356-.112,9.536-.133,10.256-.065,20.513-.15,30.77-.187,10.451-.038,20.9-.1,31.351-.1" transform="translate(17.234 2.846)" fill="#fc4daf"/>
  </g>
</svg>
